<svg xmlns="http://www.w3.org/2000/svg" xmlns:xlink="http://www.w3.org/1999/xlink" width="500" zoomAndPan="magnify" viewBox="0 0 375 374.999991" height="500" preserveAspectRatio="xMidYMid meet" version="1.0"><defs><g/><clipPath id="f7de6df157"><path d="M 43.558594 116 L 331.558594 116 L 331.558594 337.863281 L 43.558594 337.863281 Z M 43.558594 116 " clip-rule="nonzero"/></clipPath></defs><g fill="#ffffff" fill-opacity="1"><g transform="translate(16.768172, 149.684543)"><g><path d="M -10.96875 -33.546875 C -11.289062 -34.742188 -11.378906 -35.796875 -11.234375 -36.703125 C -11.097656 -37.609375 -11.003906 -38.441406 -10.953125 -39.203125 C -10.910156 -39.515625 -10.882812 -39.851562 -10.875 -40.21875 C -10.875 -40.582031 -10.898438 -40.921875 -10.953125 -41.234375 C -10.722656 -42.390625 -10.46875 -43.289062 -10.1875 -43.9375 C -9.90625 -44.59375 -9.597656 -45.363281 -9.265625 -46.25 C -9.316406 -46.5625 -9.171875 -46.976562 -8.828125 -47.5 L -6.078125 -52.359375 C -5.828125 -52.617188 -5.609375 -52.863281 -5.421875 -53.09375 C -5.234375 -53.332031 -5.046875 -53.566406 -4.859375 -53.796875 C -2.929688 -55.929688 -0.859375 -57.773438 1.359375 -59.328125 C 3.585938 -60.878906 6.164062 -61.925781 9.09375 -62.46875 C 11.726562 -63.039062 14.226562 -62.941406 16.59375 -62.171875 C 19.25 -61.609375 21.734375 -60.722656 24.046875 -59.515625 C 26.367188 -58.304688 28.472656 -56.734375 30.359375 -54.796875 C 31.753906 -53.398438 32.910156 -51.984375 33.828125 -50.546875 C 34.742188 -49.109375 35.734375 -47.300781 36.796875 -45.125 C 37.984375 -42.675781 38.878906 -39.972656 39.484375 -37.015625 C 40.085938 -34.054688 40.46875 -31.191406 40.625 -28.421875 C 40.664062 -27.285156 40.640625 -25.914062 40.546875 -24.3125 C 40.460938 -22.71875 40.296875 -21.300781 40.046875 -20.0625 C 39.671875 -17.882812 39.125 -15.660156 38.40625 -13.390625 C 37.695312 -11.128906 36.457031 -8.707031 34.6875 -6.125 C 33.675781 -4.675781 32.234375 -3.148438 30.359375 -1.546875 C 28.492188 0.0546875 26.15625 1.441406 23.34375 2.609375 C 21.300781 3.390625 18.972656 3.644531 16.359375 3.375 C 13.742188 3.101562 11.40625 2.25 9.34375 0.8125 C 5.851562 -1.476562 3.140625 -4.378906 1.203125 -7.890625 C 0.765625 -8.722656 0.335938 -9.632812 -0.078125 -10.625 C -0.503906 -11.625 -0.859375 -12.5625 -1.140625 -13.4375 C -2.742188 -18.800781 -3.398438 -24.875 -3.109375 -31.65625 C -3.109375 -32.632812 -3.019531 -33.585938 -2.84375 -34.515625 C -2.675781 -35.453125 -2.457031 -36.472656 -2.1875 -37.578125 C -2.050781 -38.210938 -1.707031 -39.316406 -1.15625 -40.890625 C -0.03125 -43.515625 1.117188 -45.550781 2.296875 -47 C 3.472656 -48.445312 5.253906 -49.6875 7.640625 -50.71875 C 8.878906 -51.101562 10.054688 -51.03125 11.171875 -50.5 C 11.628906 -50.132812 11.789062 -49.851562 11.65625 -49.65625 C 11.644531 -49.550781 11.5625 -49.421875 11.40625 -49.265625 C 11.25 -49.109375 11.132812 -48.957031 11.0625 -48.8125 L 10.171875 -48.5625 C 9.597656 -48.59375 9.128906 -48.492188 8.765625 -48.265625 C 8.398438 -48.046875 8.109375 -47.765625 7.890625 -47.421875 C 7.710938 -47.203125 7.441406 -47.003906 7.078125 -46.828125 C 6.710938 -46.648438 6.515625 -46.457031 6.484375 -46.25 C 4.929688 -44.570312 3.804688 -42.78125 3.109375 -40.875 C 2.410156 -38.96875 1.941406 -36.21875 1.703125 -32.625 C 1.710938 -31.382812 1.71875 -30.09375 1.71875 -28.75 C 1.726562 -27.40625 1.804688 -26.023438 1.953125 -24.609375 C 2.179688 -22.710938 2.5 -20.8125 2.90625 -18.90625 C 3.320312 -17.007812 3.875 -15.101562 4.5625 -13.1875 C 5.257812 -11.632812 6 -10.203125 6.78125 -8.890625 C 7.5625 -7.585938 8.503906 -6.304688 9.609375 -5.046875 C 10.410156 -4.210938 11.285156 -3.425781 12.234375 -2.6875 C 13.179688 -1.945312 14.21875 -1.363281 15.34375 -0.9375 C 17.351562 -0.15625 19.257812 -0.00390625 21.0625 -0.484375 C 22.863281 -0.960938 24.570312 -1.75 26.1875 -2.84375 C 29.257812 -5.007812 31.585938 -7.664062 33.171875 -10.8125 C 34.765625 -13.96875 35.820312 -17.265625 36.34375 -20.703125 C 36.78125 -23.523438 36.910156 -26.488281 36.734375 -29.59375 C 36.554688 -32.707031 36.222656 -35.195312 35.734375 -37.0625 C 35.359375 -38.3125 34.929688 -39.59375 34.453125 -40.90625 C 33.984375 -42.21875 33.453125 -43.515625 32.859375 -44.796875 C 31.335938 -47.617188 29.863281 -49.785156 28.4375 -51.296875 C 27.007812 -52.804688 25.550781 -54.019531 24.0625 -54.9375 C 22.570312 -55.863281 20.9375 -56.75 19.15625 -57.59375 C 17.363281 -58.4375 15.460938 -58.96875 13.453125 -59.1875 C 11.453125 -59.414062 9.171875 -59.128906 6.609375 -58.328125 C 6.023438 -58.160156 5.457031 -57.960938 4.90625 -57.734375 C 4.351562 -57.515625 3.820312 -57.257812 3.3125 -56.96875 C 2.5625 -56.507812 1.894531 -55.972656 1.3125 -55.359375 C 0.726562 -54.753906 0.160156 -54.160156 -0.390625 -53.578125 C -0.742188 -53.210938 -1.15625 -52.769531 -1.625 -52.25 C -2.101562 -51.726562 -2.421875 -51.273438 -2.578125 -50.890625 C -3.378906 -49.671875 -3.976562 -48.53125 -4.375 -47.46875 C -4.769531 -46.414062 -5.191406 -45.28125 -5.640625 -44.0625 C -5.773438 -43.875 -5.972656 -43.234375 -6.234375 -42.140625 C -6.503906 -41.046875 -6.820312 -39.800781 -7.1875 -38.40625 C -7.5625 -37.007812 -7.882812 -35.757812 -8.15625 -34.65625 C -8.425781 -33.5625 -8.570312 -32.914062 -8.59375 -32.71875 C -9.332031 -32.363281 -10.125 -32.640625 -10.96875 -33.546875 Z M -10.96875 -33.546875 "/></g></g></g><g fill="#ffffff" fill-opacity="1"><g transform="translate(66.498779, 114.271466)"><g><path d="M 28.75 -9.875 C 28.59375 -9.875 28.453125 -9.828125 28.328125 -9.734375 C 28.210938 -9.648438 28.078125 -9.609375 27.921875 -9.609375 C 27.597656 -9.609375 27.320312 -9.597656 27.09375 -9.578125 C 26.863281 -9.554688 26.648438 -9.503906 26.453125 -9.421875 C 26.035156 -9.460938 25.632812 -9.476562 25.25 -9.46875 C 24.988281 -9.5 24.734375 -9.519531 24.484375 -9.53125 C 24.242188 -9.539062 24.109375 -9.582031 24.078125 -9.65625 C 23.515625 -10.019531 22.859375 -10.15625 22.109375 -10.0625 C 21.554688 -10.050781 21.082031 -10.171875 20.6875 -10.421875 C 20.300781 -10.679688 19.945312 -10.984375 19.625 -11.328125 C 19.507812 -11.421875 19.367188 -11.507812 19.203125 -11.59375 C 19.046875 -11.675781 18.925781 -11.734375 18.84375 -11.765625 C 18.476562 -12.015625 18.160156 -12.253906 17.890625 -12.484375 C 17.628906 -12.722656 17.378906 -12.945312 17.140625 -13.15625 C 17.140625 -13.3125 16.976562 -13.476562 16.65625 -13.65625 C 15.738281 -10.78125 14.546875 -7.816406 13.078125 -4.765625 C 12.535156 -4.203125 12.019531 -3.585938 11.53125 -2.921875 C 11.039062 -2.265625 10.453125 -1.738281 9.765625 -1.34375 C 9.429688 -1.195312 8.882812 -1.164062 8.125 -1.25 C 7.363281 -1.34375 6.648438 -1.515625 5.984375 -1.765625 C 5.316406 -2.023438 4.867188 -2.222656 4.640625 -2.359375 C 3.765625 -3.066406 3.15625 -3.757812 2.8125 -4.4375 C 2.46875 -5.113281 2.226562 -5.9375 2.09375 -6.90625 C 1.90625 -8.019531 1.882812 -9.164062 2.03125 -10.34375 C 2.175781 -11.519531 2.316406 -12.554688 2.453125 -13.453125 C 2.597656 -14.347656 2.5625 -14.863281 2.34375 -15 C 1.375 -14.15625 0.703125 -13.8125 0.328125 -13.96875 C -0.0234375 -14.207031 -0.34375 -14.421875 -0.625 -14.609375 C -0.914062 -14.796875 -1.085938 -15.035156 -1.140625 -15.328125 C -1.097656 -15.585938 -1.019531 -15.820312 -0.90625 -16.03125 C -0.800781 -16.238281 -0.695312 -16.40625 -0.59375 -16.53125 C -0.28125 -17.0625 0.0859375 -17.546875 0.515625 -17.984375 C 1.210938 -18.535156 1.9375 -18.863281 2.6875 -18.96875 C 3.039062 -18.882812 3.410156 -18.851562 3.796875 -18.875 C 4.191406 -18.894531 4.507812 -18.804688 4.75 -18.609375 C 5.445312 -18.117188 5.859375 -17.425781 5.984375 -16.53125 C 6.117188 -15.644531 6.207031 -14.457031 6.25 -12.96875 C 6.25 -12.269531 6.226562 -11.390625 6.1875 -10.328125 C 6.15625 -9.273438 6.148438 -8.554688 6.171875 -8.171875 C 6.179688 -7.617188 6.265625 -7.039062 6.421875 -6.4375 C 6.578125 -5.832031 6.910156 -5.488281 7.421875 -5.40625 C 8.148438 -5.414062 8.765625 -5.816406 9.265625 -6.609375 C 9.804688 -7.328125 10.160156 -7.941406 10.328125 -8.453125 C 10.503906 -8.972656 10.707031 -9.484375 10.9375 -9.984375 C 11.226562 -10.753906 11.488281 -11.488281 11.71875 -12.1875 C 11.957031 -12.894531 12.222656 -13.628906 12.515625 -14.390625 C 12.796875 -15.160156 13.039062 -15.925781 13.25 -16.6875 C 13.457031 -17.457031 13.6875 -18.179688 13.9375 -18.859375 C 14.125 -19.335938 14.269531 -19.800781 14.375 -20.25 C 14.488281 -20.695312 14.617188 -21.113281 14.765625 -21.5 C 14.804688 -21.757812 14.914062 -22.039062 15.09375 -22.34375 L 17.171875 -23.296875 C 17.222656 -23.160156 17.515625 -23.113281 18.046875 -23.15625 C 18.578125 -23.207031 19.09375 -23.164062 19.59375 -23.03125 C 20.09375 -22.90625 20.378906 -22.503906 20.453125 -21.828125 C 20.234375 -21.085938 20.222656 -20.242188 20.421875 -19.296875 C 20.441406 -18.191406 20.609375 -17.113281 20.921875 -16.0625 C 21.242188 -15.019531 21.757812 -14.066406 22.46875 -13.203125 C 22.78125 -12.867188 23.066406 -12.601562 23.328125 -12.40625 C 24.085938 -12.113281 24.976562 -12.316406 26 -13.015625 C 27.03125 -13.722656 27.878906 -14.46875 28.546875 -15.25 C 28.960938 -15.769531 29.359375 -16.304688 29.734375 -16.859375 C 30.109375 -17.421875 30.457031 -17.976562 30.78125 -18.53125 C 31.394531 -19.601562 32.019531 -20.703125 32.65625 -21.828125 C 33.300781 -22.953125 33.882812 -24.066406 34.40625 -25.171875 L 35.203125 -27.109375 C 35.734375 -27.347656 36.085938 -27.304688 36.265625 -26.984375 C 36.453125 -26.671875 36.507812 -26.335938 36.4375 -25.984375 C 36.28125 -25.597656 36.113281 -25.207031 35.9375 -24.8125 C 35.769531 -24.414062 35.769531 -23.941406 35.9375 -23.390625 L 35.640625 -23 C 35.992188 -22.769531 36.054688 -22.539062 35.828125 -22.3125 C 35.609375 -22.09375 35.46875 -21.890625 35.40625 -21.703125 C 35.175781 -21.515625 35.113281 -21.347656 35.21875 -21.203125 C 35.320312 -21.054688 35.304688 -20.875 35.171875 -20.65625 C 35.367188 -20.582031 35.609375 -20.570312 35.890625 -20.625 C 35.691406 -20.539062 35.550781 -20.457031 35.46875 -20.375 C 35.382812 -20.289062 35.273438 -20.21875 35.140625 -20.15625 C 34.742188 -19.976562 34.617188 -19.5625 34.765625 -18.90625 C 34.890625 -18.644531 34.867188 -18.335938 34.703125 -17.984375 C 34.546875 -17.640625 34.335938 -17.410156 34.078125 -17.296875 L 33.71875 -15.453125 C 33.75 -15.390625 33.78125 -15.363281 33.8125 -15.375 C 33.84375 -15.394531 33.859375 -15.40625 33.859375 -15.40625 C 33.585938 -14.414062 33.179688 -13.632812 32.640625 -13.0625 C 32.109375 -12.5 31.554688 -11.890625 30.984375 -11.234375 Z M 28.75 -9.875 "/></g></g></g><g fill="#ffffff" fill-opacity="1"><g transform="translate(104.527112, 97.621085)"><g><path d="M 11.296875 -40.890625 L 9.59375 -40.15625 L 9.5625 -39.90625 C 11.539062 -40.582031 12.921875 -41.0625 13.703125 -41.34375 C 14.492188 -41.625 15.394531 -41.960938 16.40625 -42.359375 C 16.65625 -42.273438 16.695312 -42.132812 16.53125 -41.9375 L 15.046875 -41.25 C 14.828125 -40.957031 14.128906 -40.628906 12.953125 -40.265625 C 12.671875 -40.179688 12.304688 -40.070312 11.859375 -39.9375 C 11.410156 -39.800781 10.847656 -39.585938 10.171875 -39.296875 C 9.628906 -39.128906 9.003906 -38.957031 8.296875 -38.78125 C 7.597656 -38.613281 7.019531 -38.414062 6.5625 -38.1875 L 5.40625 -37.84375 L 5.375 -33.96875 C 5.1875 -33.84375 5.070312 -33.582031 5.03125 -33.1875 C 5 -32.800781 5.050781 -32.507812 5.1875 -32.3125 C 5.269531 -32.269531 5.234375 -32 5.078125 -31.5 C 5.367188 -31.0625 5.328125 -30.476562 4.953125 -29.75 C 4.972656 -29.6875 4.960938 -29.59375 4.921875 -29.46875 C 4.890625 -29.34375 4.929688 -29.222656 5.046875 -29.109375 C 5.378906 -28.753906 5.320312 -28.429688 4.875 -28.140625 C 4.875 -28.140625 4.914062 -28.003906 5 -27.734375 C 4.957031 -27.347656 4.984375 -27 5.078125 -26.6875 C 5.179688 -26.375 5.21875 -26.019531 5.1875 -25.625 C 5.195312 -25.34375 5.179688 -25.078125 5.140625 -24.828125 C 5.097656 -24.585938 5.078125 -24.351562 5.078125 -24.125 C 5.171875 -23.632812 5.191406 -23.09375 5.140625 -22.5 C 5.085938 -21.914062 5.097656 -21.367188 5.171875 -20.859375 C 5.128906 -20.535156 5.082031 -20.195312 5.03125 -19.84375 C 4.988281 -19.5 5.019531 -19.15625 5.125 -18.8125 C 5.144531 -18.21875 5.160156 -17.597656 5.171875 -16.953125 C 5.191406 -16.316406 5.25 -15.710938 5.34375 -15.140625 C 5.320312 -14.972656 5.28125 -14.785156 5.21875 -14.578125 C 5.164062 -14.378906 5.09375 -14.191406 5 -14.015625 C 5.21875 -13.785156 5.335938 -13.519531 5.359375 -13.21875 C 5.378906 -12.914062 5.429688 -12.625 5.515625 -12.34375 C 5.535156 -12.289062 5.523438 -12.144531 5.484375 -11.90625 C 5.441406 -11.664062 5.441406 -11.472656 5.484375 -11.328125 C 5.535156 -10.660156 5.625 -10.234375 5.75 -10.046875 C 5.738281 -9.128906 5.859375 -8.257812 6.109375 -7.4375 C 6.179688 -7.226562 6.171875 -7.03125 6.078125 -6.84375 C 5.941406 -6.800781 6.023438 -6.757812 6.328125 -6.71875 C 6.304688 -6.320312 6.242188 -5.914062 6.140625 -5.5 C 6.429688 -5.28125 6.695312 -4.847656 6.9375 -4.203125 C 7.175781 -3.566406 7.164062 -3.175781 6.90625 -3.03125 C 7.0625 -3 7.1875 -2.957031 7.28125 -2.90625 C 7.375 -2.863281 7.335938 -2.738281 7.171875 -2.53125 C 7.460938 -2.550781 7.679688 -2.320312 7.828125 -1.84375 C 7.867188 -1.476562 8 -1.117188 8.21875 -0.765625 C 8.445312 -0.410156 8.644531 -0.0703125 8.8125 0.25 C 8.914062 0.601562 9.082031 0.851562 9.3125 1 C 9.550781 1.15625 9.726562 1.289062 9.84375 1.40625 L 10.828125 2.015625 C 11.390625 2.140625 11.769531 2.210938 11.96875 2.234375 C 12.164062 2.253906 12.5 2.148438 12.96875 1.921875 C 13.394531 1.867188 13.816406 1.664062 14.234375 1.3125 C 14.648438 0.957031 14.859375 0.78125 14.859375 0.78125 C 15.148438 1.226562 15.195312 1.6875 15 2.15625 C 14.8125 2.625 14.640625 3.109375 14.484375 3.609375 C 14.367188 3.953125 14.070312 4.195312 13.59375 4.34375 L 13.796875 4.28125 C 13.054688 4.59375 12.507812 4.78125 12.15625 4.84375 C 11.800781 4.914062 11.160156 4.828125 10.234375 4.578125 C 9.710938 4.585938 9.265625 4.476562 8.890625 4.25 C 8.523438 4.03125 8.066406 3.738281 7.515625 3.375 C 7.296875 3.207031 7.003906 3.023438 6.640625 2.828125 C 5.835938 2.179688 5.144531 1.394531 4.5625 0.46875 C 3.976562 -0.445312 3.425781 -1.390625 2.90625 -2.359375 C 2.375 -3.328125 2 -4.347656 1.78125 -5.421875 C 1.570312 -6.492188 1.332031 -7.59375 1.0625 -8.71875 C 0.800781 -9.320312 0.664062 -9.957031 0.65625 -10.625 C 0.644531 -11.300781 0.570312 -11.960938 0.4375 -12.609375 L 0.265625 -15.734375 C 0.304688 -16.359375 0.273438 -16.972656 0.171875 -17.578125 C 0.0664062 -18.179688 0.0078125 -18.863281 0 -19.625 C -0.0625 -19.832031 -0.0507812 -20.039062 0.03125 -20.25 C 0.125 -20.46875 0.160156 -20.726562 0.140625 -21.03125 L 0.34375 -21.09375 C 0.257812 -21.132812 0.207031 -21.191406 0.1875 -21.265625 C 0.164062 -21.335938 0.109375 -21.394531 0.015625 -21.4375 L 0.15625 -32.828125 L 0.203125 -36.359375 C -0.972656 -36.003906 -2.59375 -35.625 -4.65625 -35.21875 C -5.332031 -35.15625 -5.9375 -35.132812 -6.46875 -35.15625 C -7 -35.1875 -7.375 -35.429688 -7.59375 -35.890625 C -7.632812 -36.035156 -7.644531 -36.257812 -7.625 -36.5625 C -7.613281 -36.875 -7.472656 -37.101562 -7.203125 -37.25 C -7.046875 -37.6875 -6.878906 -37.929688 -6.703125 -37.984375 C -6.535156 -38.035156 -6.453125 -38.0625 -6.453125 -38.0625 C -6.378906 -38.082031 -6.269531 -38.097656 -6.125 -38.109375 C -5.976562 -38.117188 -5.878906 -38.171875 -5.828125 -38.265625 C -5.515625 -38.503906 -5.195312 -38.707031 -4.875 -38.875 C -4.550781 -39.050781 -4.195312 -39.125 -3.8125 -39.09375 L -1.78125 -39.5 C -1.320312 -39.707031 -0.898438 -39.867188 -0.515625 -39.984375 C -0.128906 -40.109375 0.195312 -40.210938 0.46875 -40.296875 C 0.644531 -40.960938 0.722656 -41.570312 0.703125 -42.125 C 0.679688 -42.6875 0.738281 -43.25 0.875 -43.8125 C 0.832031 -44.414062 0.84375 -44.988281 0.90625 -45.53125 C 0.96875 -46.070312 1.023438 -46.625 1.078125 -47.1875 C 1.054688 -47.78125 1.097656 -48.394531 1.203125 -49.03125 C 1.304688 -49.664062 1.332031 -50.316406 1.28125 -50.984375 C 1.382812 -51.617188 1.429688 -52.253906 1.421875 -52.890625 C 1.421875 -53.535156 1.460938 -54.210938 1.546875 -54.921875 C 1.484375 -55.128906 1.5 -55.320312 1.59375 -55.5 C 1.6875 -55.675781 1.765625 -55.925781 1.828125 -56.25 C 1.847656 -56.644531 1.875 -57.109375 1.90625 -57.640625 C 1.9375 -58.179688 1.929688 -58.632812 1.890625 -59 C 1.929688 -59.613281 2.179688 -59.910156 2.640625 -59.890625 C 2.722656 -59.847656 2.820312 -59.820312 2.9375 -59.8125 C 3.050781 -59.8125 3.15625 -59.785156 3.25 -59.734375 C 3.738281 -59.585938 4.203125 -59.488281 4.640625 -59.4375 C 5.078125 -59.382812 5.394531 -59.160156 5.59375 -58.765625 C 5.707031 -58.640625 5.867188 -58.535156 6.078125 -58.453125 C 6.285156 -58.378906 6.453125 -58.28125 6.578125 -58.15625 C 7.078125 -58 7.332031 -57.773438 7.34375 -57.484375 C 7.351562 -57.191406 7.34375 -56.847656 7.3125 -56.453125 C 7.195312 -55.367188 7.070312 -54.296875 6.9375 -53.234375 C 6.8125 -52.171875 6.613281 -51.101562 6.34375 -50.03125 C 6.382812 -49.375 6.332031 -48.660156 6.1875 -47.890625 C 6.050781 -47.128906 5.953125 -46.359375 5.890625 -45.578125 C 5.859375 -44.441406 5.820312 -43.617188 5.78125 -43.109375 C 5.75 -42.609375 5.742188 -42.054688 5.765625 -41.453125 C 6.566406 -41.628906 7.1875 -41.726562 7.625 -41.75 C 8.0625 -41.78125 8.375 -41.859375 8.5625 -41.984375 C 10.238281 -42.429688 11.515625 -42.769531 12.390625 -43 C 13.273438 -43.226562 13.988281 -43.441406 14.53125 -43.640625 C 15.070312 -43.847656 15.671875 -44.125 16.328125 -44.46875 C 16.441406 -44.582031 16.578125 -44.738281 16.734375 -44.9375 C 16.898438 -45.144531 17.078125 -45.195312 17.265625 -45.09375 C 17.546875 -44.65625 17.457031 -44.269531 17 -43.9375 C 16.539062 -43.613281 16.253906 -43.242188 16.140625 -42.828125 L 15.96875 -42.671875 C 15.6875 -42.578125 15.3125 -42.4375 14.84375 -42.25 C 14.375 -42.070312 13.984375 -41.863281 13.671875 -41.625 C 13.421875 -41.695312 13.039062 -41.632812 12.53125 -41.4375 C 12.03125 -41.238281 11.617188 -41.054688 11.296875 -40.890625 Z M 11.296875 -40.890625 "/></g></g></g><g fill="#ffffff" fill-opacity="1"><g transform="translate(125.946316, 90.925634)"><g><path d="M 12.609375 -43.21875 C 12.273438 -42.632812 12.132812 -42.203125 12.1875 -41.921875 C 12.25 -41.640625 12.210938 -41.265625 12.078125 -40.796875 L 11.9375 -40.4375 C 12.132812 -40.175781 12.128906 -39.929688 11.921875 -39.703125 C 11.710938 -39.472656 11.515625 -39.265625 11.328125 -39.078125 C 11.273438 -38.992188 11.222656 -38.691406 11.171875 -38.171875 C 10.878906 -37.816406 10.773438 -37.425781 10.859375 -37 C 10.878906 -36.863281 10.867188 -36.703125 10.828125 -36.515625 C 10.796875 -36.328125 10.796875 -36.160156 10.828125 -36.015625 C 10.671875 -35.378906 10.570312 -34.78125 10.53125 -34.21875 C 10.488281 -33.664062 10.378906 -33.113281 10.203125 -32.5625 C 10.171875 -32.332031 10.066406 -32.109375 9.890625 -31.890625 C 9.722656 -31.671875 9.585938 -31.4375 9.484375 -31.1875 C 9.503906 -31.050781 9.585938 -31 9.734375 -31.03125 C 9.691406 -30.882812 9.691406 -30.703125 9.734375 -30.484375 C 9.773438 -30.273438 9.8125 -30.097656 9.84375 -29.953125 L 9.125 -26.828125 C 9.039062 -26.140625 8.929688 -25.59375 8.796875 -25.1875 C 8.796875 -25.1875 8.757812 -25.175781 8.6875 -25.15625 C 8.613281 -25.144531 8.550781 -25.109375 8.5 -25.046875 C 8.632812 -25.078125 8.734375 -25.109375 8.796875 -25.140625 C 8.867188 -25.179688 8.941406 -25.210938 9.015625 -25.234375 C 9.398438 -25.460938 9.960938 -25.648438 10.703125 -25.796875 C 11.453125 -25.941406 11.96875 -26.082031 12.25 -26.21875 C 12.863281 -26.414062 13.5 -26.617188 14.15625 -26.828125 C 14.820312 -27.035156 15.320312 -27.210938 15.65625 -27.359375 C 16.394531 -27.722656 17.050781 -27.941406 17.625 -28.015625 C 18.195312 -28.085938 18.691406 -28.207031 19.109375 -28.375 C 19.304688 -28.488281 19.628906 -28.609375 20.078125 -28.734375 C 20.535156 -28.859375 20.90625 -28.953125 21.1875 -29.015625 C 21.257812 -29.023438 21.5625 -28.972656 22.09375 -28.859375 C 22.164062 -28.867188 22.234375 -28.734375 22.296875 -28.453125 C 22.367188 -28.085938 21.953125 -27.785156 21.046875 -27.546875 L 19.671875 -26.703125 C 19.710938 -26.492188 19.726562 -26.207031 19.71875 -25.84375 C 19.71875 -25.476562 19.726562 -25.257812 19.75 -25.1875 C 19.40625 -25.039062 19.035156 -24.835938 18.640625 -24.578125 C 18.253906 -24.316406 17.960938 -24.3125 17.765625 -24.5625 C 17.535156 -24.21875 17.398438 -24.15625 17.359375 -24.375 C 17.140625 -24.332031 16.703125 -24.1875 16.046875 -23.9375 C 15.398438 -23.695312 14.800781 -23.488281 14.25 -23.3125 L 10.921875 -22.3125 C 10.648438 -22.1875 10.207031 -22.078125 9.59375 -21.984375 C 8.988281 -21.898438 8.617188 -21.8125 8.484375 -21.71875 L 8.296875 -21.5625 C 8.265625 -21.34375 8.15625 -21.175781 7.96875 -21.0625 L 7.96875 -19.40625 L 7.828125 -17.28125 L 9.078125 -17.640625 L 9.71875 -17.203125 L 10.125 -17.390625 C 10.195312 -17.410156 10.269531 -17.40625 10.34375 -17.375 C 10.425781 -17.351562 10.5 -17.390625 10.5625 -17.484375 C 10.695312 -17.503906 10.769531 -17.570312 10.78125 -17.6875 C 10.800781 -17.8125 10.894531 -17.8125 11.0625 -17.6875 L 11.671875 -17.484375 L 12.3125 -17.625 C 12.5 -17.351562 12.722656 -17.113281 12.984375 -16.90625 C 13.253906 -16.707031 13.488281 -16.445312 13.6875 -16.125 C 13.78125 -16.0625 13.910156 -15.988281 14.078125 -15.90625 C 14.242188 -15.832031 14.296875 -15.753906 14.234375 -15.671875 C 14.460938 -15.273438 14.75 -15.128906 15.09375 -15.234375 C 15.4375 -15.335938 15.671875 -15.257812 15.796875 -15 C 15.773438 -14.769531 15.96875 -14.378906 16.375 -13.828125 C 16.78125 -13.285156 17.226562 -12.785156 17.71875 -12.328125 C 18.21875 -11.878906 18.519531 -11.59375 18.625 -11.46875 C 18.5625 -11.382812 18.609375 -11.226562 18.765625 -11 C 18.921875 -10.769531 19.0625 -10.519531 19.1875 -10.25 C 19.070312 -10.070312 19.132812 -9.75 19.375 -9.28125 C 19.625 -8.820312 19.796875 -8.53125 19.890625 -8.40625 C 20.054688 -8.289062 20.171875 -8.238281 20.234375 -8.25 C 20.085938 -7.914062 19.984375 -7.742188 19.921875 -7.734375 L 20.03125 -7.65625 C 20.125 -7.59375 20.171875 -7.453125 20.171875 -7.234375 C 20.179688 -7.015625 20.207031 -6.800781 20.25 -6.59375 L 20.234375 -6.140625 C 20.546875 -5.984375 20.707031 -5.703125 20.71875 -5.296875 C 20.726562 -4.890625 20.804688 -4.519531 20.953125 -4.1875 L 21 -3.96875 L 22.734375 3.09375 C 22.960938 3.488281 23.023438 3.894531 22.921875 4.3125 C 22.828125 4.738281 22.828125 5.019531 22.921875 5.15625 L 22.875 7.59375 L 22.484375 7.359375 L 22.890625 8.25 L 22.5625 11.09375 C 22.65625 11.582031 22.675781 11.867188 22.625 11.953125 C 22.46875 12.660156 22.363281 13.347656 22.3125 14.015625 C 22.269531 14.679688 22.171875 15.363281 22.015625 16.0625 C 21.898438 16.601562 21.765625 17.144531 21.609375 17.6875 C 21.460938 18.226562 21.234375 18.828125 20.921875 19.484375 C 20.867188 19.929688 20.722656 20.378906 20.484375 20.828125 C 20.242188 21.285156 20.019531 21.757812 19.8125 22.25 C 19.832031 22.320312 19.820312 22.359375 19.78125 22.359375 C 19.75 22.367188 19.738281 22.410156 19.75 22.484375 C 19.488281 23.046875 19.242188 23.585938 19.015625 24.109375 C 18.796875 24.640625 18.472656 25.128906 18.046875 25.578125 C 17.804688 25.847656 17.515625 26.144531 17.171875 26.46875 C 16.835938 26.800781 16.421875 27.019531 15.921875 27.125 C 15.578125 27.195312 15.234375 27.320312 14.890625 27.5 C 14.554688 27.675781 14.1875 27.84375 13.78125 28 C 13.144531 28.195312 12.394531 28.25 11.53125 28.15625 C 10.675781 28.070312 10.015625 27.78125 9.546875 27.28125 C 8.929688 26.820312 8.382812 26.328125 7.90625 25.796875 C 7.4375 25.265625 7.0625 24.65625 6.78125 23.96875 C 6.25 23.1875 5.816406 22.316406 5.484375 21.359375 C 5.285156 21.097656 5.125 20.847656 5 20.609375 C 4.882812 20.378906 4.972656 20.09375 5.265625 19.75 C 4.847656 19.445312 4.625 19.039062 4.59375 18.53125 C 4.5625 18.03125 4.367188 17.628906 4.015625 17.328125 C 4.035156 17.035156 4.046875 16.703125 4.046875 16.328125 C 4.046875 15.960938 4.148438 15.609375 4.359375 15.265625 L 4.25 15.1875 C 3.875 14.738281 3.675781 14.203125 3.65625 13.578125 C 3.644531 12.960938 3.609375 12.328125 3.546875 11.671875 C 3.503906 11.460938 3.425781 11.257812 3.3125 11.0625 C 3.195312 10.863281 3.1875 10.609375 3.28125 10.296875 C 3.414062 9.890625 3.425781 9.515625 3.3125 9.171875 C 3.207031 8.828125 3.164062 8.503906 3.1875 8.203125 C 3.15625 8.066406 3.171875 7.972656 3.234375 7.921875 C 3.304688 7.867188 3.34375 7.84375 3.34375 7.84375 C 3.351562 7.1875 3.273438 6.539062 3.109375 5.90625 C 2.953125 5.269531 2.816406 4.671875 2.703125 4.109375 C 2.679688 3.296875 2.691406 2.515625 2.734375 1.765625 C 2.773438 1.023438 2.75 0.222656 2.65625 -0.640625 C 2.882812 -1.273438 2.941406 -1.96875 2.828125 -2.71875 C 2.710938 -3.46875 2.75 -4.125 2.9375 -4.6875 C 2.800781 -4.945312 2.804688 -5.179688 2.953125 -5.390625 C 3.109375 -5.609375 3.191406 -5.863281 3.203125 -6.15625 C 3.097656 -6.289062 3.019531 -6.484375 2.96875 -6.734375 C 2.925781 -6.984375 2.882812 -7.210938 2.84375 -7.421875 C 2.757812 -7.847656 2.773438 -8.296875 2.890625 -8.765625 C 3.015625 -8.867188 3.085938 -9.234375 3.109375 -9.859375 C 3.140625 -10.492188 3.164062 -11.125 3.1875 -11.75 C 3.207031 -12.382812 3.164062 -12.757812 3.0625 -12.875 C 3.164062 -13.125 3.28125 -13.757812 3.40625 -14.78125 C 3.53125 -15.800781 3.671875 -16.84375 3.828125 -17.90625 C 3.984375 -18.96875 4.046875 -19.570312 4.015625 -19.71875 L 4.140625 -20.296875 C 4.066406 -20.273438 4.015625 -20.242188 3.984375 -20.203125 C 3.953125 -20.160156 3.898438 -20.132812 3.828125 -20.125 L 3.390625 -20.140625 L 2.65625 -19.875 L 0.84375 -19.515625 L 0.234375 -19.296875 L -0.109375 -19.328125 C -0.660156 -19.515625 -1.191406 -19.59375 -1.703125 -19.5625 C -2.023438 -19.34375 -2.296875 -19.769531 -2.515625 -20.84375 C -2.597656 -20.90625 -2.675781 -20.929688 -2.75 -20.921875 C -2.738281 -20.847656 -2.757812 -20.859375 -2.8125 -20.953125 C -2.863281 -21.046875 -2.953125 -21.226562 -3.078125 -21.5 C -3.179688 -21.632812 -3.164062 -21.898438 -3.03125 -22.296875 C -1.582031 -22.503906 -0.375 -22.742188 0.59375 -23.015625 L 1.125 -23.125 L 1.734375 -23.46875 C 1.941406 -23.507812 2.191406 -23.539062 2.484375 -23.5625 C 2.773438 -23.582031 2.953125 -23.632812 3.015625 -23.71875 L 3.625 -23.953125 L 4.671875 -24.171875 L 5.265625 -27.921875 C 5.472656 -29.066406 5.6875 -30.269531 5.90625 -31.53125 C 6.132812 -32.800781 6.425781 -34.0625 6.78125 -35.3125 C 6.988281 -36.082031 7.132812 -36.804688 7.21875 -37.484375 C 7.3125 -38.171875 7.476562 -38.835938 7.71875 -39.484375 C 7.90625 -40.703125 8.1875 -41.9375 8.5625 -43.1875 C 8.9375 -44.4375 9.285156 -45.578125 9.609375 -46.609375 L 9.71875 -47.171875 C 9.71875 -47.171875 9.859375 -47.566406 10.140625 -48.359375 C 10.421875 -49.160156 10.742188 -50.019531 11.109375 -50.9375 C 11.472656 -51.851562 11.734375 -52.515625 11.890625 -52.921875 L 13.21875 -55.625 C 13.675781 -56.300781 14.378906 -56.550781 15.328125 -56.375 C 16.285156 -56.195312 16.851562 -56.050781 17.03125 -55.9375 C 17.101562 -55.945312 17.3125 -55.800781 17.65625 -55.5 C 18.007812 -55.207031 18.242188 -54.960938 18.359375 -54.765625 C 18.578125 -54.441406 18.429688 -54.15625 17.921875 -53.90625 C 17.421875 -53.65625 16.960938 -53.117188 16.546875 -52.296875 C 16.285156 -51.722656 16.09375 -51.273438 15.96875 -50.953125 C 15.851562 -50.640625 15.648438 -50.269531 15.359375 -49.84375 C 15.085938 -49.425781 14.867188 -49.050781 14.703125 -48.71875 C 14.546875 -48.394531 14.378906 -47.921875 14.203125 -47.296875 C 13.867188 -46.421875 13.570312 -45.71875 13.3125 -45.1875 C 13.050781 -44.65625 12.816406 -44 12.609375 -43.21875 Z M 8.65625 -16.4375 L 7.703125 -16.796875 L 7.546875 -14.78125 C 7.660156 -14.207031 7.59375 -13.457031 7.34375 -12.53125 C 7.332031 -12.226562 7.3125 -11.875 7.28125 -11.46875 C 7.25 -11.0625 7.195312 -10.660156 7.125 -10.265625 C 6.976562 -9.503906 6.925781 -8.738281 6.96875 -7.96875 C 7.019531 -7.195312 6.757812 -6.570312 6.1875 -6.09375 C 6.320312 -5.832031 6.507812 -5.632812 6.75 -5.5 C 7 -5.363281 7.019531 -5.085938 6.8125 -4.671875 L 6.65625 5.640625 C 6.664062 5.703125 6.585938 5.863281 6.421875 6.125 C 6.503906 6.1875 6.570312 6.320312 6.625 6.53125 C 6.664062 6.75 6.65625 6.898438 6.59375 6.984375 C 6.53125 7.078125 6.441406 7.203125 6.328125 7.359375 C 6.484375 7.398438 6.585938 7.453125 6.640625 7.515625 C 6.691406 7.578125 6.769531 7.675781 6.875 7.8125 L 7 8.453125 C 7.070312 8.503906 7.117188 8.566406 7.140625 8.640625 C 7.128906 8.929688 7.097656 9.691406 7.046875 10.921875 C 7.003906 12.148438 7.070312 13.039062 7.25 13.59375 L 7.515625 14.328125 C 7.546875 14.523438 7.550781 14.738281 7.53125 14.96875 C 7.507812 15.207031 7.460938 15.515625 7.390625 15.890625 C 7.472656 15.953125 7.601562 16.332031 7.78125 17.03125 C 7.957031 17.726562 7.992188 18.195312 7.890625 18.4375 C 7.890625 18.4375 8.003906 18.632812 8.234375 19.03125 C 8.460938 19.4375 8.460938 19.804688 8.234375 20.140625 C 8.171875 20.222656 8.207031 20.328125 8.34375 20.453125 C 8.488281 20.578125 8.566406 20.675781 8.578125 20.75 L 9.09375 22.296875 C 9.28125 23.210938 9.648438 23.953125 10.203125 24.515625 C 10.378906 24.691406 10.53125 24.910156 10.65625 25.171875 C 10.789062 25.441406 11.03125 25.503906 11.375 25.359375 L 12.59375 24.796875 C 12.988281 24.578125 13.347656 24.359375 13.671875 24.140625 C 14.003906 23.929688 14.257812 23.550781 14.4375 23 C 15.082031 22.132812 15.59375 21.273438 15.96875 20.421875 C 16.351562 19.578125 16.71875 18.710938 17.0625 17.828125 C 17.4375 16.429688 17.6875 15.109375 17.8125 13.859375 C 17.9375 12.617188 18.019531 11.367188 18.0625 10.109375 C 18.113281 9.285156 18.140625 8.429688 18.140625 7.546875 C 18.148438 6.660156 18.15625 5.84375 18.15625 5.09375 C 18.101562 4.457031 18.035156 3.832031 17.953125 3.21875 C 17.867188 2.601562 17.726562 1.984375 17.53125 1.359375 C 17.570312 -0.265625 17.328125 -1.875 16.796875 -3.46875 L 15.65625 -7.453125 C 14.957031 -9.078125 14.3125 -10.363281 13.71875 -11.3125 C 13.125 -12.269531 12.316406 -13.269531 11.296875 -14.3125 Z M 8.65625 -16.4375 "/></g></g></g><g fill="#ffffff" fill-opacity="1"><g transform="translate(152.328209, 85.770849)"><g><path d="M 6.609375 -24.53125 C 6.453125 -24.65625 6.242188 -24.757812 5.984375 -24.84375 C 5.722656 -24.925781 5.515625 -25.03125 5.359375 -25.15625 C 4.628906 -25.8125 4.320312 -26.6875 4.4375 -27.78125 C 4.65625 -28.613281 5.007812 -29.289062 5.5 -29.8125 C 5.988281 -30.332031 6.570312 -30.804688 7.25 -31.234375 C 7.320312 -31.304688 7.429688 -31.347656 7.578125 -31.359375 C 7.722656 -31.367188 7.796875 -31.375 7.796875 -31.375 C 8.929688 -31.5625 9.644531 -31.3125 9.9375 -30.625 C 10.132812 -30.132812 10.332031 -29.59375 10.53125 -29 C 10.738281 -28.40625 10.765625 -27.8125 10.609375 -27.21875 C 10.441406 -26.601562 10.160156 -26.09375 9.765625 -25.6875 C 9.367188 -25.289062 8.9375 -24.890625 8.46875 -24.484375 C 7.851562 -24.203125 7.234375 -24.21875 6.609375 -24.53125 Z M 22.328125 -14.40625 L 22.234375 -14.296875 C 22.234375 -14.296875 22.050781 -13.929688 21.6875 -13.203125 C 21.320312 -12.484375 20.925781 -11.738281 20.5 -10.96875 C 20.070312 -10.207031 19.757812 -9.671875 19.5625 -9.359375 C 19.375 -9.046875 19.195312 -8.609375 19.03125 -8.046875 C 18.863281 -7.484375 18.441406 -6.625 17.765625 -5.46875 L 16.765625 -3.625 C 16.691406 -3.539062 16.625 -3.421875 16.5625 -3.265625 C 16.507812 -3.117188 16.421875 -2.96875 16.296875 -2.8125 L 15.796875 -2.234375 C 15.398438 -1.898438 15.039062 -1.515625 14.71875 -1.078125 C 14.394531 -0.648438 14.078125 -0.203125 13.765625 0.265625 C 13.441406 0.734375 12.941406 1.253906 12.265625 1.828125 C 12.078125 2.066406 11.84375 2.238281 11.5625 2.34375 C 11.289062 2.445312 10.976562 2.585938 10.625 2.765625 C 10.351562 2.941406 10.023438 3.140625 9.640625 3.359375 C 9.265625 3.578125 8.910156 3.804688 8.578125 4.046875 C 8.148438 4.160156 7.765625 4.179688 7.421875 4.109375 C 7.085938 4.035156 6.742188 3.984375 6.390625 3.953125 C 5.859375 3.859375 5.414062 3.644531 5.0625 3.3125 C 4.71875 2.976562 4.347656 2.6875 3.953125 2.4375 C 3.867188 2.375 3.800781 2.269531 3.75 2.125 C 3.695312 1.988281 3.632812 1.890625 3.5625 1.828125 C 3.445312 1.460938 3.234375 1.191406 2.921875 1.015625 C 2.835938 0.804688 2.734375 0.632812 2.609375 0.5 C 2.484375 0.375 2.375 0.207031 2.28125 0 C 2.125 -0.9375 2.066406 -1.914062 2.109375 -2.9375 C 2.148438 -3.957031 2.265625 -4.945312 2.453125 -5.90625 C 2.535156 -6.644531 2.632812 -7.363281 2.75 -8.0625 C 2.863281 -8.757812 2.992188 -9.484375 3.140625 -10.234375 C 3.253906 -11.253906 3.382812 -12.242188 3.53125 -13.203125 C 3.6875 -14.171875 3.863281 -15.171875 4.0625 -16.203125 L 3.96875 -17.078125 C 3.769531 -17.566406 3.890625 -17.832031 4.328125 -17.875 C 4.472656 -17.96875 4.628906 -18.035156 4.796875 -18.078125 C 4.972656 -18.128906 5.148438 -18.019531 5.328125 -17.75 C 5.503906 -17.476562 5.757812 -17.265625 6.09375 -17.109375 C 6.4375 -16.960938 6.691406 -16.75 6.859375 -16.46875 C 7.085938 -16.351562 7.335938 -16.195312 7.609375 -16 C 7.890625 -15.8125 8.078125 -15.613281 8.171875 -15.40625 C 8.429688 -15 8.523438 -14.46875 8.453125 -13.8125 C 8.472656 -13.519531 8.460938 -13.222656 8.421875 -12.921875 C 8.378906 -12.628906 8.296875 -12.335938 8.171875 -12.046875 C 8.097656 -11.378906 7.984375 -10.707031 7.828125 -10.03125 C 7.671875 -9.363281 7.523438 -8.660156 7.390625 -7.921875 C 7.335938 -7.703125 7.269531 -7.476562 7.1875 -7.25 C 7.101562 -7.03125 7.035156 -6.804688 6.984375 -6.578125 C 6.867188 -6.273438 6.8125 -6.085938 6.8125 -6.015625 C 7.007812 -5.535156 7.039062 -5.046875 6.90625 -4.546875 C 6.769531 -4.054688 6.695312 -3.523438 6.6875 -2.953125 C 6.726562 -2.453125 6.71875 -1.960938 6.65625 -1.484375 C 6.59375 -1.003906 6.554688 -0.46875 6.546875 0.125 C 7.722656 -0.363281 8.679688 -0.972656 9.421875 -1.703125 C 10.210938 -2.566406 11.035156 -3.425781 11.890625 -4.28125 C 12.753906 -5.132812 13.539062 -5.992188 14.25 -6.859375 C 15.03125 -7.734375 15.773438 -8.625 16.484375 -9.53125 C 17.191406 -10.4375 17.910156 -11.289062 18.640625 -12.09375 C 19.234375 -12.738281 19.84375 -13.398438 20.46875 -14.078125 C 21.09375 -14.753906 21.726562 -15.488281 22.375 -16.28125 C 22.757812 -15.957031 22.742188 -15.332031 22.328125 -14.40625 Z M 22.328125 -14.40625 "/></g></g></g><g fill="#ffffff" fill-opacity="1"><g transform="translate(173.820474, 83.606093)"><g><path d="M 22.453125 -36.015625 L 20.609375 -35.765625 L 20.5 -35.546875 C 22.59375 -35.640625 24.054688 -35.707031 24.890625 -35.75 C 25.722656 -35.800781 26.679688 -35.867188 27.765625 -35.953125 C 27.984375 -35.804688 27.984375 -35.660156 27.765625 -35.515625 L 26.140625 -35.28125 C 25.847656 -35.0625 25.085938 -34.941406 23.859375 -34.921875 C 23.566406 -34.921875 23.1875 -34.914062 22.71875 -34.90625 C 22.25 -34.90625 21.648438 -34.867188 20.921875 -34.796875 C 20.347656 -34.785156 19.695312 -34.796875 18.96875 -34.828125 C 18.25 -34.859375 17.640625 -34.832031 17.140625 -34.75 L 15.9375 -34.75 L 14.796875 -31.046875 C 14.578125 -30.972656 14.394531 -30.753906 14.25 -30.390625 C 14.101562 -30.035156 14.066406 -29.75 14.140625 -29.53125 C 14.222656 -29.457031 14.117188 -29.195312 13.828125 -28.75 C 13.972656 -28.257812 13.765625 -27.71875 13.203125 -27.125 C 13.203125 -27.050781 13.164062 -26.960938 13.09375 -26.859375 C 13.019531 -26.753906 13.019531 -26.628906 13.09375 -26.484375 C 13.320312 -26.046875 13.179688 -25.753906 12.671875 -25.609375 C 12.671875 -25.609375 12.671875 -25.460938 12.671875 -25.171875 C 12.523438 -24.816406 12.453125 -24.472656 12.453125 -24.140625 C 12.460938 -23.816406 12.394531 -23.46875 12.25 -23.09375 C 12.1875 -22.8125 12.097656 -22.5625 11.984375 -22.34375 C 11.878906 -22.125 11.796875 -21.90625 11.734375 -21.6875 C 11.671875 -21.1875 11.53125 -20.664062 11.3125 -20.125 C 11.101562 -19.582031 10.960938 -19.054688 10.890625 -18.546875 C 10.742188 -18.242188 10.597656 -17.929688 10.453125 -17.609375 C 10.316406 -17.285156 10.25 -16.941406 10.25 -16.578125 C 10.113281 -16.003906 9.957031 -15.410156 9.78125 -14.796875 C 9.613281 -14.179688 9.492188 -13.582031 9.421875 -13 C 9.347656 -12.851562 9.257812 -12.6875 9.15625 -12.5 C 9.050781 -12.3125 8.925781 -12.148438 8.78125 -12.015625 C 8.925781 -11.722656 8.960938 -11.429688 8.890625 -11.140625 C 8.828125 -10.847656 8.796875 -10.554688 8.796875 -10.265625 C 8.796875 -10.203125 8.738281 -10.0625 8.625 -9.84375 C 8.519531 -9.625 8.46875 -9.441406 8.46875 -9.296875 C 8.332031 -8.648438 8.300781 -8.21875 8.375 -8 C 8.101562 -7.125 7.972656 -6.253906 7.984375 -5.390625 C 7.984375 -5.171875 7.910156 -4.988281 7.765625 -4.84375 C 7.617188 -4.84375 7.691406 -4.773438 7.984375 -4.640625 C 7.847656 -4.273438 7.671875 -3.90625 7.453125 -3.53125 C 7.671875 -3.25 7.800781 -2.765625 7.84375 -2.078125 C 7.882812 -1.390625 7.757812 -1.007812 7.46875 -0.9375 C 7.625 -0.875 7.738281 -0.804688 7.8125 -0.734375 C 7.882812 -0.660156 7.8125 -0.550781 7.59375 -0.40625 C 7.882812 -0.332031 8.03125 -0.0390625 8.03125 0.46875 C 7.96875 0.820312 7.988281 1.195312 8.09375 1.59375 C 8.207031 2 8.300781 2.378906 8.375 2.734375 C 8.375 3.097656 8.460938 3.390625 8.640625 3.609375 C 8.828125 3.828125 8.960938 4.007812 9.046875 4.15625 L 9.8125 5 C 10.3125 5.289062 10.648438 5.46875 10.828125 5.53125 C 11.015625 5.601562 11.363281 5.601562 11.875 5.53125 C 12.300781 5.601562 12.765625 5.523438 13.265625 5.296875 C 13.773438 5.078125 14.03125 4.96875 14.03125 4.96875 C 14.175781 5.476562 14.085938 5.929688 13.765625 6.328125 C 13.453125 6.722656 13.15625 7.140625 12.875 7.578125 C 12.65625 7.878906 12.296875 8.03125 11.796875 8.03125 L 12.015625 8.03125 C 11.210938 8.113281 10.628906 8.132812 10.265625 8.09375 C 9.910156 8.0625 9.328125 7.796875 8.515625 7.296875 C 8.015625 7.148438 7.617188 6.914062 7.328125 6.59375 C 7.035156 6.28125 6.671875 5.867188 6.234375 5.359375 C 6.085938 5.140625 5.867188 4.890625 5.578125 4.609375 C 4.984375 3.742188 4.535156 2.789062 4.234375 1.75 C 3.941406 0.707031 3.679688 -0.351562 3.453125 -1.4375 C 3.222656 -2.519531 3.15625 -3.601562 3.25 -4.6875 C 3.351562 -5.78125 3.4375 -6.90625 3.5 -8.0625 C 3.425781 -8.707031 3.472656 -9.351562 3.640625 -10 C 3.816406 -10.65625 3.941406 -11.3125 4.015625 -11.96875 L 4.734375 -15.015625 C 4.953125 -15.585938 5.09375 -16.179688 5.15625 -16.796875 C 5.21875 -17.410156 5.359375 -18.082031 5.578125 -18.8125 C 5.578125 -19.03125 5.644531 -19.226562 5.78125 -19.40625 C 5.925781 -19.59375 6.035156 -19.832031 6.109375 -20.125 L 6.3125 -20.125 C 6.25 -20.195312 6.21875 -20.269531 6.21875 -20.34375 C 6.21875 -20.414062 6.179688 -20.488281 6.109375 -20.5625 L 9.46875 -31.4375 L 10.515625 -34.796875 C 9.285156 -34.785156 7.625 -34.878906 5.53125 -35.078125 C 4.875 -35.222656 4.289062 -35.382812 3.78125 -35.5625 C 3.28125 -35.738281 2.988281 -36.078125 2.90625 -36.578125 C 2.90625 -36.722656 2.957031 -36.941406 3.0625 -37.234375 C 3.175781 -37.523438 3.375 -37.703125 3.65625 -37.765625 C 3.945312 -38.140625 4.179688 -38.328125 4.359375 -38.328125 C 4.535156 -38.328125 4.625 -38.328125 4.625 -38.328125 C 4.695312 -38.328125 4.804688 -38.304688 4.953125 -38.265625 C 5.097656 -38.234375 5.207031 -38.253906 5.28125 -38.328125 C 5.644531 -38.484375 6.003906 -38.597656 6.359375 -38.671875 C 6.722656 -38.742188 7.085938 -38.710938 7.453125 -38.578125 L 9.515625 -38.375 C 10.015625 -38.445312 10.460938 -38.484375 10.859375 -38.484375 C 11.265625 -38.492188 11.609375 -38.5 11.890625 -38.5 C 12.253906 -39.09375 12.503906 -39.660156 12.640625 -40.203125 C 12.785156 -40.742188 13 -41.265625 13.28125 -41.765625 C 13.414062 -42.347656 13.585938 -42.894531 13.796875 -43.40625 C 14.015625 -43.914062 14.226562 -44.425781 14.4375 -44.9375 C 14.582031 -45.507812 14.796875 -46.085938 15.078125 -46.671875 C 15.359375 -47.253906 15.566406 -47.875 15.703125 -48.53125 C 15.992188 -49.101562 16.226562 -49.695312 16.40625 -50.3125 C 16.582031 -50.925781 16.804688 -51.5625 17.078125 -52.21875 C 17.078125 -52.4375 17.144531 -52.617188 17.28125 -52.765625 C 17.425781 -52.910156 17.570312 -53.128906 17.71875 -53.421875 C 17.863281 -53.785156 18.023438 -54.21875 18.203125 -54.71875 C 18.378906 -55.226562 18.503906 -55.664062 18.578125 -56.03125 C 18.773438 -56.613281 19.09375 -56.832031 19.53125 -56.6875 C 19.601562 -56.613281 19.691406 -56.554688 19.796875 -56.515625 C 19.910156 -56.484375 20.003906 -56.429688 20.078125 -56.359375 C 20.515625 -56.085938 20.929688 -55.859375 21.328125 -55.671875 C 21.734375 -55.492188 21.972656 -55.1875 22.046875 -54.75 C 22.128906 -54.613281 22.257812 -54.472656 22.4375 -54.328125 C 22.613281 -54.191406 22.738281 -54.050781 22.8125 -53.90625 C 23.25 -53.613281 23.429688 -53.320312 23.359375 -53.03125 C 23.296875 -52.75 23.191406 -52.425781 23.046875 -52.0625 C 22.628906 -51.050781 22.207031 -50.050781 21.78125 -49.0625 C 21.351562 -48.082031 20.859375 -47.117188 20.296875 -46.171875 C 20.148438 -45.523438 19.894531 -44.859375 19.53125 -44.171875 C 19.175781 -43.484375 18.863281 -42.769531 18.59375 -42.03125 C 18.238281 -40.945312 17.972656 -40.171875 17.796875 -39.703125 C 17.617188 -39.234375 17.457031 -38.707031 17.3125 -38.125 C 18.113281 -38.050781 18.734375 -37.960938 19.171875 -37.859375 C 19.609375 -37.765625 19.9375 -37.753906 20.15625 -37.828125 C 21.882812 -37.773438 23.203125 -37.734375 24.109375 -37.703125 C 25.015625 -37.671875 25.753906 -37.675781 26.328125 -37.71875 C 26.910156 -37.757812 27.554688 -37.851562 28.265625 -38 C 28.410156 -38.070312 28.59375 -38.179688 28.8125 -38.328125 C 29.03125 -38.484375 29.210938 -38.488281 29.359375 -38.34375 C 29.515625 -37.84375 29.320312 -37.5 28.78125 -37.3125 C 28.238281 -37.125 27.859375 -36.847656 27.640625 -36.484375 L 27.421875 -36.375 C 27.128906 -36.363281 26.734375 -36.335938 26.234375 -36.296875 C 25.734375 -36.253906 25.300781 -36.164062 24.9375 -36.03125 C 24.71875 -36.164062 24.335938 -36.210938 23.796875 -36.171875 C 23.253906 -36.128906 22.804688 -36.078125 22.453125 -36.015625 Z M 22.453125 -36.015625 "/></g></g></g><g fill="#ffffff" fill-opacity="1"><g transform="translate(196.293446, 83.430286)"><g/></g></g><g fill="#ffffff" fill-opacity="1"><g transform="translate(216.608363, 83.321314)"><g><path d="M 67.765625 -29.90625 C 68.265625 -27.125 67.828125 -24.367188 66.453125 -21.640625 C 65.078125 -18.921875 63.046875 -16.925781 60.359375 -15.65625 C 59.023438 -15.101562 57.882812 -14.863281 56.9375 -14.9375 C 56 -15.019531 55.300781 -15.828125 54.84375 -17.359375 C 54.8125 -17.804688 55.097656 -18.125 55.703125 -18.3125 C 56.316406 -18.5 57.054688 -18.859375 57.921875 -19.390625 C 59.140625 -20.128906 60.109375 -20.816406 60.828125 -21.453125 C 61.546875 -22.097656 62.195312 -23.171875 62.78125 -24.671875 C 63.132812 -25.484375 63.375 -26.300781 63.5 -27.125 C 63.625 -27.945312 63.578125 -28.832031 63.359375 -29.78125 C 63.203125 -30.625 62.773438 -31.375 62.078125 -32.03125 C 61.390625 -32.695312 60.78125 -33.132812 60.25 -33.34375 L 58.390625 -34 C 58.054688 -33.875 57.628906 -33.894531 57.109375 -34.0625 C 56.597656 -34.226562 56.34375 -34.3125 56.34375 -34.3125 C 56.039062 -34.300781 55.335938 -34.316406 54.234375 -34.359375 C 53.128906 -34.410156 52.066406 -34.425781 51.046875 -34.40625 C 50.035156 -34.394531 49.429688 -34.269531 49.234375 -34.03125 C 48.984375 -33.945312 48.773438 -33.867188 48.609375 -33.796875 C 48.441406 -33.722656 48.238281 -33.644531 48 -33.5625 C 47.5 -33.375 46.96875 -33.347656 46.40625 -33.484375 C 45.914062 -33.597656 45.476562 -33.332031 45.09375 -32.6875 L 42.109375 -31.421875 C 41.160156 -30.910156 39.554688 -30.28125 37.296875 -29.53125 C 35.035156 -28.789062 32.90625 -27.398438 30.90625 -25.359375 C 28.988281 -23.304688 28.210938 -21.113281 28.578125 -18.78125 C 28.941406 -16.457031 29.828125 -14.378906 31.234375 -12.546875 C 31.984375 -11.691406 32.765625 -10.882812 33.578125 -10.125 C 34.398438 -9.375 35.203125 -8.597656 35.984375 -7.796875 C 36.265625 -7.429688 36.578125 -7.113281 36.921875 -6.84375 C 37.265625 -6.582031 37.585938 -6.300781 37.890625 -6 C 39.609375 -4.53125 41.210938 -2.976562 42.703125 -1.34375 C 44.203125 0.28125 45.585938 2 46.859375 3.8125 C 48.734375 6.5 49.953125 9.585938 50.515625 13.078125 C 50.660156 14.535156 50.492188 15.800781 50.015625 16.875 C 49.535156 17.945312 48.816406 18.882812 47.859375 19.6875 C 46.453125 20.914062 44.613281 21.898438 42.34375 22.640625 C 40.082031 23.390625 37.671875 23.894531 35.109375 24.15625 C 32.546875 24.414062 30.097656 24.445312 27.765625 24.25 C 25.429688 24.050781 23.128906 23.648438 20.859375 23.046875 C 18.585938 22.453125 16.367188 21.703125 14.203125 20.796875 C 10.515625 19.140625 7.816406 16.78125 6.109375 13.71875 C 4.410156 10.664062 3.941406 7.300781 4.703125 3.625 C 4.859375 2.976562 5.390625 2.226562 6.296875 1.375 C 7.210938 0.519531 8.253906 -0.316406 9.421875 -1.140625 C 10.597656 -1.972656 11.644531 -2.664062 12.5625 -3.21875 C 13.488281 -3.78125 14.03125 -4.078125 14.1875 -4.109375 C 15.132812 -4.328125 15.984375 -4.15625 16.734375 -3.59375 C 17.492188 -3.03125 17.972656 -2.410156 18.171875 -1.734375 C 18.378906 -1.054688 18.144531 -0.679688 17.46875 -0.609375 C 15.582031 -0.566406 13.898438 -0.113281 12.421875 0.75 C 10.953125 1.625 9.890625 3.066406 9.234375 5.078125 C 8.796875 6.597656 8.628906 8.429688 8.734375 10.578125 C 8.847656 12.722656 9.523438 14.4375 10.765625 15.71875 C 12.515625 17.40625 14.425781 18.582031 16.5 19.25 C 17.675781 19.613281 18.882812 19.910156 20.125 20.140625 C 21.375 20.367188 22.625 20.523438 23.875 20.609375 C 26.84375 20.898438 29.773438 20.765625 32.671875 20.203125 C 35.566406 19.648438 38.070312 19 40.1875 18.25 C 41.882812 17.695312 43.46875 16.707031 44.9375 15.28125 C 45.71875 14.507812 46.316406 13.648438 46.734375 12.703125 C 47.160156 11.765625 47.226562 10.664062 46.9375 9.40625 C 46.757812 8.320312 46.421875 7.285156 45.921875 6.296875 C 45.421875 5.316406 44.863281 4.382812 44.25 3.5 C 43.226562 1.90625 42.035156 0.40625 40.671875 -1 C 39.304688 -2.414062 37.875 -3.722656 36.375 -4.921875 C 35.382812 -5.753906 34.429688 -6.65625 33.515625 -7.625 C 32.609375 -8.59375 31.710938 -9.554688 30.828125 -10.515625 C 30.054688 -11.304688 29.039062 -12.5625 27.78125 -14.28125 C 26.53125 -16 25.738281 -17.828125 25.40625 -19.765625 C 24.65625 -23.972656 25.765625 -27.425781 28.734375 -30.125 C 29.515625 -30.914062 30.34375 -31.585938 31.21875 -32.140625 C 32.101562 -32.691406 33.050781 -33.191406 34.0625 -33.640625 C 35.382812 -34.191406 36.660156 -34.707031 37.890625 -35.1875 C 39.128906 -35.664062 40.414062 -36.035156 41.75 -36.296875 C 45.175781 -36.941406 47.941406 -37.378906 50.046875 -37.609375 C 52.160156 -37.835938 54.332031 -37.796875 56.5625 -37.484375 C 58.207031 -37.222656 60.003906 -36.742188 61.953125 -36.046875 C 63.898438 -35.347656 65.382812 -34.347656 66.40625 -33.046875 C 67.09375 -32.203125 67.546875 -31.15625 67.765625 -29.90625 Z M 67.765625 -29.90625 "/></g></g></g><g fill="#ffffff" fill-opacity="1"><g transform="translate(274.838545, 99.018164)"><g><path d="M -25.734375 41.109375 C -25.867188 40.890625 -26 40.648438 -26.125 40.390625 C -26.25 40.140625 -26.390625 39.820312 -26.546875 39.4375 L -27.1875 39.046875 L -27.59375 37.546875 C -25.726562 35.359375 -23.984375 33.125 -22.359375 30.84375 C -20.742188 28.5625 -19.128906 26.316406 -17.515625 24.109375 C -17.441406 24.140625 -17.378906 24.1875 -17.328125 24.25 C -17.285156 24.3125 -17.226562 24.359375 -17.15625 24.390625 C -17.132812 23.828125 -16.976562 23.351562 -16.6875 22.96875 C -16.40625 22.59375 -16.101562 22.398438 -15.78125 22.390625 C -15.945312 22.234375 -16.128906 22.109375 -16.328125 22.015625 C -16.015625 21.691406 -15.734375 21.425781 -15.484375 21.21875 C -14.953125 20.90625 -14.695312 20.503906 -14.71875 20.015625 C -14.71875 19.859375 -14.65625 19.726562 -14.53125 19.625 C -14.40625 19.519531 -14.296875 19.445312 -14.203125 19.40625 C -13.585938 18.738281 -12.851562 17.898438 -12 16.890625 C -11.144531 15.890625 -10.367188 14.914062 -9.671875 13.96875 C -8.972656 13.019531 -8.5 12.359375 -8.25 11.984375 C -8.0625 11.742188 -7.90625 11.53125 -7.78125 11.34375 C -7.664062 11.164062 -7.566406 10.976562 -7.484375 10.78125 C -6.671875 9.882812 -5.894531 8.96875 -5.15625 8.03125 C -4.414062 7.101562 -3.710938 6.148438 -3.046875 5.171875 C -2.585938 4.503906 -2.09375 3.851562 -1.5625 3.21875 C -1.039062 2.59375 -0.5 1.921875 0.0625 1.203125 C 0.425781 0.742188 0.773438 0.3125 1.109375 -0.09375 C 1.441406 -0.5 1.75 -0.914062 2.03125 -1.34375 C 2.613281 -2.101562 3.160156 -2.882812 3.671875 -3.6875 C 4.191406 -4.5 4.78125 -5.269531 5.4375 -6 C 5.738281 -6.5 6.0625 -6.960938 6.40625 -7.390625 C 6.757812 -7.828125 7.085938 -8.300781 7.390625 -8.8125 C 7.890625 -9.375 8.378906 -9.921875 8.859375 -10.453125 C 9.347656 -10.992188 9.8125 -11.566406 10.25 -12.171875 C 10.539062 -12.492188 10.84375 -12.828125 11.15625 -13.171875 C 11.46875 -13.515625 11.851562 -13.859375 12.3125 -14.203125 C 12.65625 -14.765625 13.078125 -14.894531 13.578125 -14.59375 L 13.859375 -14.46875 C 14.359375 -14.320312 14.671875 -14.078125 14.796875 -13.734375 C 14.929688 -13.390625 14.984375 -13.023438 14.953125 -12.640625 L 14.6875 -11.234375 C 14.664062 -10.835938 14.484375 -10.519531 14.140625 -10.28125 C 14.046875 -10.082031 13.84375 -9.816406 13.53125 -9.484375 C 13.113281 -9.429688 12.960938 -9.1875 13.078125 -8.75 C 12.992188 -8.695312 12.9375 -8.640625 12.90625 -8.578125 C 12.882812 -8.515625 12.820312 -8.460938 12.71875 -8.421875 C 12.445312 -7.992188 12.15625 -7.613281 11.84375 -7.28125 C 11.53125 -6.945312 11.1875 -6.546875 10.8125 -6.078125 L 10.625 -6.171875 C 10.34375 -5.734375 10.054688 -5.320312 9.765625 -4.9375 C 9.472656 -4.5625 9.007812 -3.835938 8.375 -2.765625 L 8.28125 -2.578125 C 7.820312 -2.222656 7.410156 -1.734375 7.046875 -1.109375 C 7.296875 -1.328125 7.53125 -1.460938 7.75 -1.515625 C 7.96875 -1.566406 8.460938 -1.820312 9.234375 -2.28125 C 9.160156 -2.300781 9.617188 -2.703125 10.609375 -3.484375 C 11.597656 -4.273438 13.039062 -5.195312 14.9375 -6.25 C 15.03125 -6.289062 15.140625 -6.316406 15.265625 -6.328125 C 15.398438 -6.347656 15.484375 -6.390625 15.515625 -6.453125 C 15.734375 -6.753906 15.921875 -6.910156 16.078125 -6.921875 L 18.296875 -7.09375 L 20.4375 -7.59375 C 21.15625 -7.644531 21.789062 -7.585938 22.34375 -7.421875 C 22.90625 -7.253906 23.421875 -7.066406 23.890625 -6.859375 C 24.210938 -6.710938 24.566406 -6.488281 24.953125 -6.1875 C 25.347656 -5.882812 25.660156 -5.648438 25.890625 -5.484375 C 26.117188 -5.304688 26.320312 -5.140625 26.5 -4.984375 C 26.675781 -4.828125 26.894531 -4.609375 27.15625 -4.328125 C 27.21875 -4.296875 27.550781 -3.765625 28.15625 -2.734375 C 28.769531 -1.710938 28.992188 -0.921875 28.828125 -0.359375 C 29.023438 -0.265625 29.007812 -0.148438 28.78125 -0.015625 C 28.664062 0.242188 28.582031 0.476562 28.53125 0.6875 C 28.476562 0.90625 28.40625 1.117188 28.3125 1.328125 C 28.082031 1.847656 27.851562 2.4375 27.625 3.09375 C 27.40625 3.75 27.046875 4.28125 26.546875 4.6875 C 26.242188 5.175781 25.785156 5.617188 25.171875 6.015625 C 24.554688 6.421875 24.035156 6.84375 23.609375 7.28125 C 23.066406 7.59375 22.523438 7.863281 21.984375 8.09375 C 21.441406 8.332031 20.890625 8.644531 20.328125 9.03125 L 17.453125 9.875 C 16.921875 9.957031 16.460938 9.988281 16.078125 9.96875 C 15.691406 9.957031 15.253906 9.957031 14.765625 9.96875 C 14.710938 9.945312 14.613281 9.921875 14.46875 9.890625 C 14.320312 9.859375 14.226562 9.796875 14.1875 9.703125 C 13.945312 9.523438 13.722656 9.3125 13.515625 9.0625 C 13.316406 8.8125 13.066406 8.582031 12.765625 8.375 C 12.628906 8.144531 12.515625 7.953125 12.421875 7.796875 C 12.335938 7.640625 12.320312 7.410156 12.375 7.109375 L 12.21875 6.921875 C 11.925781 6.546875 11.789062 6.101562 11.8125 5.59375 C 11.832031 5.09375 11.914062 4.601562 12.0625 4.125 C 12.050781 3.957031 12.128906 3.8125 12.296875 3.6875 C 12.472656 3.570312 12.625 3.378906 12.75 3.109375 C 13.082031 3.253906 13.222656 3.4375 13.171875 3.65625 C 13.117188 3.875 13.078125 4.097656 13.046875 4.328125 C 12.867188 4.710938 12.863281 5.023438 13.03125 5.265625 C 13.207031 5.503906 13.40625 5.628906 13.625 5.640625 C 14.21875 5.753906 14.726562 5.726562 15.15625 5.5625 C 15.59375 5.40625 16 5.253906 16.375 5.109375 C 16.84375 4.921875 17.359375 4.734375 17.921875 4.546875 C 18.492188 4.359375 19.007812 4.097656 19.46875 3.765625 C 19.976562 3.515625 20.453125 3.253906 20.890625 2.984375 C 21.335938 2.710938 21.796875 2.398438 22.265625 2.046875 L 22.4375 1.640625 C 22.59375 1.472656 22.753906 1.328125 22.921875 1.203125 C 23.097656 1.085938 23.203125 1 23.234375 0.9375 C 23.578125 0.53125 23.910156 0.1875 24.234375 -0.09375 C 24.566406 -0.382812 24.769531 -0.789062 24.84375 -1.3125 C 24.988281 -1.644531 25.078125 -1.976562 25.109375 -2.3125 C 25.148438 -2.65625 25.160156 -2.992188 25.140625 -3.328125 C 25.066406 -3.671875 24.789062 -3.929688 24.3125 -4.109375 C 23.84375 -4.285156 23.425781 -4.332031 23.0625 -4.25 C 22.53125 -4.257812 22.082031 -4.265625 21.71875 -4.265625 C 21.351562 -4.265625 20.953125 -4.207031 20.515625 -4.09375 L 20.3125 -4.1875 C 20.125 -4.113281 19.910156 -4.03125 19.671875 -3.9375 C 19.429688 -3.851562 19.175781 -3.785156 18.90625 -3.734375 C 18.539062 -3.585938 18.195312 -3.46875 17.875 -3.375 C 17.550781 -3.289062 17.175781 -3.222656 16.75 -3.171875 C 16.113281 -2.984375 15.507812 -2.820312 14.9375 -2.6875 C 14.363281 -2.550781 13.789062 -2.289062 13.21875 -1.90625 C 12.53125 -1.425781 11.828125 -1.007812 11.109375 -0.65625 C 10.398438 -0.300781 9.664062 0.0234375 8.90625 0.328125 C 8.519531 0.460938 7.921875 0.863281 7.109375 1.53125 C 6.296875 2.195312 5.734375 2.695312 5.421875 3.03125 L 4.828125 2.765625 C 4.929688 2.890625 4.941406 3.050781 4.859375 3.25 C 4.628906 3.382812 4.296875 3.671875 3.859375 4.109375 C 3.421875 4.546875 3.25 4.75 3.34375 4.71875 C 2.96875 4.863281 2.660156 5.117188 2.421875 5.484375 C 2.179688 5.847656 1.789062 5.910156 1.25 5.671875 L 1.359375 5.71875 C 1.390625 5.8125 1.421875 5.863281 1.453125 5.875 C 1.492188 5.894531 1.515625 5.90625 1.515625 5.90625 C 1.296875 6.207031 1.09375 6.472656 0.90625 6.703125 C 0.71875 6.941406 0.488281 7.191406 0.21875 7.453125 C 0.1875 7.523438 0.117188 7.539062 0.015625 7.5 C -0.078125 7.457031 -0.175781 7.453125 -0.28125 7.484375 C -0.0703125 7.734375 -0.238281 8.097656 -0.78125 8.578125 C -0.882812 8.671875 -0.96875 8.820312 -1.03125 9.03125 C -1.09375 9.25 -1.300781 9.320312 -1.65625 9.25 C -1.8125 9.96875 -2.160156 10.617188 -2.703125 11.203125 C -3.253906 11.796875 -3.726562 12.082031 -4.125 12.0625 C -3.914062 12.3125 -3.8125 12.4375 -3.8125 12.4375 C -3.882812 12.40625 -3.941406 12.398438 -3.984375 12.421875 C -4.035156 12.441406 -4.128906 12.421875 -4.265625 12.359375 C -4.160156 12.484375 -4.078125 12.5625 -4.015625 12.59375 C -4.191406 12.832031 -4.320312 13.085938 -4.40625 13.359375 C -4.5 13.640625 -4.632812 13.894531 -4.8125 14.125 C -5.507812 15.15625 -6.15625 15.890625 -6.75 16.328125 C -6.988281 16.703125 -7.207031 17.019531 -7.40625 17.28125 C -7.613281 17.550781 -7.859375 17.820312 -8.140625 18.09375 C -8.222656 18.289062 -8.25 18.441406 -8.21875 18.546875 L -9.390625 19.8125 L -10.109375 21.390625 C -11.097656 22.203125 -11.8125 22.921875 -12.25 23.546875 C -12.695312 24.179688 -13.117188 24.851562 -13.515625 25.5625 C -13.546875 25.625 -13.613281 25.6875 -13.71875 25.75 C -13.832031 25.820312 -13.898438 25.894531 -13.921875 25.96875 C -14.179688 26.332031 -14.375 26.617188 -14.5 26.828125 C -14.632812 27.046875 -14.816406 27.304688 -15.046875 27.609375 C -15.097656 27.734375 -15.3125 27.953125 -15.6875 28.265625 C -15.613281 28.441406 -15.722656 28.765625 -16.015625 29.234375 C -16.304688 29.703125 -16.71875 30.015625 -17.25 30.171875 L -16.953125 30.546875 C -17.160156 30.847656 -17.378906 31.125 -17.609375 31.375 C -17.847656 31.625 -18.109375 31.882812 -18.390625 32.15625 C -18.390625 32.15625 -18.394531 32.210938 -18.40625 32.328125 C -18.414062 32.453125 -18.445312 32.578125 -18.5 32.703125 C -18.75 33.066406 -19.050781 33.46875 -19.40625 33.90625 C -19.757812 34.34375 -20.09375 34.8125 -20.40625 35.3125 C -20.519531 35.570312 -20.707031 35.898438 -20.96875 36.296875 C -21.226562 36.691406 -21.394531 37.070312 -21.46875 37.4375 C -21.46875 37.601562 -21.5625 37.800781 -21.75 38.03125 C -21.9375 38.257812 -22.085938 38.425781 -22.203125 38.53125 C -22.390625 38.757812 -22.570312 39.03125 -22.75 39.34375 C -22.925781 39.664062 -23.144531 39.929688 -23.40625 40.140625 C -23.4375 40.203125 -23.539062 40.269531 -23.71875 40.34375 C -23.6875 40.28125 -23.703125 40.234375 -23.765625 40.203125 C -23.835938 40.179688 -23.875 40.171875 -23.875 40.171875 C -24.03125 40.335938 -24.160156 40.492188 -24.265625 40.640625 C -24.378906 40.785156 -24.5 40.988281 -24.625 41.25 C -24.78125 41.257812 -25.148438 41.210938 -25.734375 41.109375 Z M -25.734375 41.109375 "/></g></g></g><g fill="#ffffff" fill-opacity="1"><g transform="translate(301.654477, 111.187075)"><g><path d="M 34.078125 2.859375 L 34.109375 3.015625 L 33.609375 3.859375 C 32.722656 4.085938 32 4.242188 31.4375 4.328125 C 30.882812 4.410156 30.398438 4.457031 29.984375 4.46875 C 29.722656 4.476562 29.515625 4.539062 29.359375 4.65625 C 29.203125 4.78125 29.03125 4.789062 28.84375 4.6875 L 28.203125 4.296875 C 28.078125 4.222656 27.992188 4.21875 27.953125 4.28125 C 27.742188 4.5 27.476562 4.554688 27.15625 4.453125 C 26.832031 4.347656 26.515625 4.285156 26.203125 4.265625 L 24.5625 4.046875 C 23.914062 4.003906 23.367188 3.894531 22.921875 3.71875 C 22.484375 3.539062 22 3.332031 21.46875 3.09375 C 21.34375 3.019531 21.222656 2.96875 21.109375 2.9375 C 21.003906 2.914062 20.882812 2.867188 20.75 2.796875 C 20.382812 2.578125 20.09375 2.660156 19.875 3.046875 C 19.726562 3.128906 19.578125 3.226562 19.421875 3.34375 C 19.273438 3.46875 19.144531 3.617188 19.03125 3.796875 L 19.171875 4 C 19.171875 4 19.160156 4.015625 19.140625 4.046875 C 19.117188 4.078125 19.109375 4.09375 19.109375 4.09375 C 18.710938 4.195312 18.410156 4.351562 18.203125 4.5625 C 17.992188 4.78125 17.679688 4.894531 17.265625 4.90625 C 17.171875 4.925781 17.101562 5.007812 17.0625 5.15625 C 17.019531 5.300781 16.945312 5.382812 16.84375 5.40625 C 16.195312 5.625 15.609375 5.863281 15.078125 6.125 C 14.546875 6.394531 13.914062 6.65625 13.1875 6.90625 L 12.890625 6.96875 C 12.492188 7.070312 12.101562 7.160156 11.71875 7.234375 C 11.34375 7.304688 10.988281 7.410156 10.65625 7.546875 C 10.132812 7.578125 9.722656 7.503906 9.421875 7.328125 C 8.890625 7.359375 8.414062 7.332031 8 7.25 C 7.582031 7.175781 7.117188 7.070312 6.609375 6.9375 C 6.097656 6.789062 5.789062 6.609375 5.6875 6.390625 C 5.28125 6.066406 4.820312 5.734375 4.3125 5.390625 C 3.800781 5.046875 3.414062 4.671875 3.15625 4.265625 C 2.664062 3.804688 2.300781 3.316406 2.0625 2.796875 C 1.832031 2.273438 1.6875 1.707031 1.625 1.09375 C 1.414062 0.289062 1.488281 -0.546875 1.84375 -1.421875 C 2.195312 -2.304688 2.566406 -3.140625 2.953125 -3.921875 C 3.398438 -4.835938 4.046875 -5.65625 4.890625 -6.375 C 5.742188 -7.09375 6.53125 -7.78125 7.25 -8.4375 C 7.5625 -8.675781 7.878906 -8.992188 8.203125 -9.390625 C 8.523438 -9.785156 8.71875 -9.96875 8.78125 -9.9375 C 9.363281 -10.25 9.925781 -10.582031 10.46875 -10.9375 C 11.019531 -11.289062 11.492188 -11.515625 11.890625 -11.609375 C 12.585938 -11.796875 13.273438 -11.9375 13.953125 -12.03125 C 14.640625 -12.125 15.34375 -12.128906 16.0625 -12.046875 C 16.601562 -11.984375 17.09375 -11.820312 17.53125 -11.5625 C 17.96875 -11.300781 18.375 -11.0625 18.75 -10.84375 C 19 -10.695312 19.128906 -10.492188 19.140625 -10.234375 C 19.160156 -9.972656 19.207031 -9.691406 19.28125 -9.390625 C 19.3125 -9.296875 19.367188 -9.21875 19.453125 -9.15625 C 19.546875 -9.101562 19.601562 -9.03125 19.625 -8.9375 C 20.019531 -8.457031 20.484375 -7.992188 21.015625 -7.546875 C 21.554688 -7.109375 21.957031 -6.472656 22.21875 -5.640625 C 22.238281 -5.535156 22.328125 -5.4375 22.484375 -5.34375 C 22.648438 -5.25 22.75 -5.15625 22.78125 -5.0625 C 23.050781 -4.40625 23.128906 -3.476562 23.015625 -2.28125 L 22.4375 0.140625 C 22.320312 0.328125 22.265625 0.421875 22.265625 0.421875 C 23.335938 0.628906 24.359375 0.832031 25.328125 1.03125 C 26.304688 1.238281 27.269531 1.457031 28.21875 1.6875 C 29.101562 1.78125 29.941406 1.929688 30.734375 2.140625 C 31.523438 2.359375 32.640625 2.597656 34.078125 2.859375 Z M 18.609375 -1.234375 C 18.691406 -1.515625 18.832031 -1.785156 19.03125 -2.046875 C 19.226562 -2.316406 19.398438 -2.570312 19.546875 -2.8125 C 19.710938 -3.21875 19.875 -3.664062 20.03125 -4.15625 C 20.195312 -4.65625 20.265625 -5.164062 20.234375 -5.6875 C 20.253906 -6.007812 20.070312 -6.203125 19.6875 -6.265625 C 19.125 -6.597656 18.597656 -6.695312 18.109375 -6.5625 C 17.710938 -6.457031 17.3125 -6.378906 16.90625 -6.328125 C 16.5 -6.273438 16.132812 -6.050781 15.8125 -5.65625 C 15.476562 -5.101562 15.3125 -4.53125 15.3125 -3.9375 C 15.207031 -3.488281 15.429688 -3.101562 15.984375 -2.78125 Z M 16.109375 1.078125 C 16.546875 0.910156 16.601562 0.601562 16.28125 0.15625 C 15.65625 -0.207031 15.144531 -0.628906 14.75 -1.109375 C 13.863281 -1.878906 13.203125 -2.816406 12.765625 -3.921875 C 12.304688 -4.703125 12.144531 -5.425781 12.28125 -6.09375 C 12.207031 -6.550781 12.253906 -6.984375 12.421875 -7.390625 C 11.835938 -6.984375 11.316406 -6.640625 10.859375 -6.359375 C 10.410156 -6.078125 9.914062 -5.765625 9.375 -5.421875 C 9.132812 -5.304688 8.894531 -5.15625 8.65625 -4.96875 C 8.414062 -4.78125 8.210938 -4.609375 8.046875 -4.453125 C 7.835938 -4.234375 7.640625 -4.003906 7.453125 -3.765625 C 7.273438 -3.535156 7.082031 -3.320312 6.875 -3.125 C 6.425781 -2.789062 6.03125 -2.367188 5.6875 -1.859375 C 5.34375 -1.347656 5.023438 -0.847656 4.734375 -0.359375 C 4.554688 -0.046875 4.421875 0.253906 4.328125 0.546875 C 4.242188 0.835938 4.144531 1.15625 4.03125 1.5 C 3.875 1.90625 3.984375 2.320312 4.359375 2.75 C 4.734375 3.1875 5.300781 3.460938 6.0625 3.578125 C 6.875 3.796875 7.734375 3.878906 8.640625 3.828125 C 9.546875 3.773438 10.394531 3.648438 11.1875 3.453125 C 12.175781 3.203125 13.085938 2.863281 13.921875 2.4375 C 14.296875 2.226562 14.644531 1.988281 14.96875 1.71875 C 15.300781 1.457031 15.679688 1.242188 16.109375 1.078125 Z M 16.109375 1.078125 "/></g></g></g><g fill="#ffffff" fill-opacity="1"><g transform="translate(323.288684, 124.021494)"><g><path d="M 39.5 -15.5 L 37.875 -16.421875 L 37.65625 -16.3125 C 39.394531 -15.125 40.609375 -14.300781 41.296875 -13.84375 C 41.992188 -13.382812 42.804688 -12.867188 43.734375 -12.296875 C 43.816406 -12.035156 43.726562 -11.914062 43.46875 -11.9375 L 42.03125 -12.71875 C 41.65625 -12.71875 40.972656 -13.078125 39.984375 -13.796875 C 39.742188 -13.972656 39.429688 -14.195312 39.046875 -14.46875 C 38.671875 -14.75 38.171875 -15.070312 37.546875 -15.4375 C 37.078125 -15.769531 36.5625 -16.164062 36 -16.625 C 35.4375 -17.082031 34.929688 -17.425781 34.484375 -17.65625 L 33.515625 -18.375 L 30.390625 -16.078125 C 30.171875 -16.160156 29.894531 -16.097656 29.5625 -15.890625 C 29.238281 -15.679688 29.039062 -15.46875 28.96875 -15.25 C 28.976562 -15.144531 28.738281 -15.003906 28.25 -14.828125 C 28.070312 -14.335938 27.582031 -14.023438 26.78125 -13.890625 C 26.738281 -13.835938 26.65625 -13.785156 26.53125 -13.734375 C 26.40625 -13.691406 26.332031 -13.59375 26.3125 -13.4375 C 26.226562 -12.957031 25.9375 -12.804688 25.4375 -12.984375 C 25.4375 -12.984375 25.347656 -12.863281 25.171875 -12.625 C 24.847656 -12.4375 24.585938 -12.207031 24.390625 -11.9375 C 24.203125 -11.675781 23.945312 -11.441406 23.625 -11.234375 C 23.394531 -11.046875 23.171875 -10.894531 22.953125 -10.78125 C 22.734375 -10.664062 22.535156 -10.539062 22.359375 -10.40625 C 22.003906 -10.039062 21.578125 -9.703125 21.078125 -9.390625 C 20.585938 -9.085938 20.160156 -8.75 19.796875 -8.375 C 19.515625 -8.226562 19.21875 -8.066406 18.90625 -7.890625 C 18.59375 -7.722656 18.332031 -7.488281 18.125 -7.1875 C 17.664062 -6.8125 17.179688 -6.425781 16.671875 -6.03125 C 16.171875 -5.644531 15.722656 -5.234375 15.328125 -4.796875 C 15.171875 -4.722656 14.992188 -4.644531 14.796875 -4.5625 C 14.609375 -4.488281 14.414062 -4.4375 14.21875 -4.40625 C 14.164062 -4.09375 14.023438 -3.835938 13.796875 -3.640625 C 13.566406 -3.441406 13.363281 -3.226562 13.1875 -3 C 13.15625 -2.945312 13.03125 -2.863281 12.8125 -2.75 C 12.59375 -2.632812 12.441406 -2.519531 12.359375 -2.40625 C 11.847656 -1.96875 11.5625 -1.640625 11.5 -1.421875 C 10.75 -0.878906 10.117188 -0.257812 9.609375 0.4375 C 9.484375 0.613281 9.320312 0.722656 9.125 0.765625 C 9.007812 0.671875 9.023438 0.765625 9.171875 1.046875 C 8.835938 1.253906 8.476562 1.441406 8.09375 1.609375 C 8.09375 1.972656 7.90625 2.441406 7.53125 3.015625 C 7.164062 3.597656 6.84375 3.828125 6.5625 3.703125 C 6.632812 3.835938 6.679688 3.957031 6.703125 4.0625 C 6.722656 4.175781 6.597656 4.222656 6.328125 4.203125 C 6.515625 4.441406 6.457031 4.765625 6.15625 5.171875 C 5.894531 5.421875 5.691406 5.738281 5.546875 6.125 C 5.398438 6.507812 5.242188 6.863281 5.078125 7.1875 C 4.859375 7.488281 4.757812 7.78125 4.78125 8.0625 C 4.8125 8.34375 4.804688 8.5625 4.765625 8.71875 L 4.890625 9.859375 C 5.117188 10.390625 5.285156 10.738281 5.390625 10.90625 C 5.492188 11.070312 5.773438 11.28125 6.234375 11.53125 C 6.535156 11.832031 6.953125 12.039062 7.484375 12.15625 C 8.023438 12.28125 8.296875 12.34375 8.296875 12.34375 C 8.109375 12.851562 7.765625 13.171875 7.265625 13.296875 C 6.773438 13.421875 6.289062 13.570312 5.8125 13.75 C 5.457031 13.863281 5.078125 13.773438 4.671875 13.484375 L 4.84375 13.609375 C 4.15625 13.203125 3.675781 12.875 3.40625 12.625 C 3.132812 12.382812 2.828125 11.820312 2.484375 10.9375 C 2.160156 10.519531 1.976562 10.09375 1.9375 9.65625 C 1.894531 9.226562 1.851562 8.679688 1.8125 8.015625 C 1.820312 7.753906 1.789062 7.425781 1.71875 7.03125 C 1.757812 5.988281 1.972656 4.957031 2.359375 3.9375 C 2.742188 2.914062 3.164062 1.90625 3.625 0.90625 C 4.082031 -0.101562 4.675781 -1.015625 5.40625 -1.828125 C 6.132812 -2.640625 6.875 -3.488281 7.625 -4.375 C 7.9375 -4.9375 8.359375 -5.425781 8.890625 -5.84375 C 9.429688 -6.269531 9.921875 -6.722656 10.359375 -7.203125 L 12.75 -9.21875 C 13.269531 -9.5625 13.738281 -9.957031 14.15625 -10.40625 C 14.570312 -10.863281 15.085938 -11.316406 15.703125 -11.765625 C 15.828125 -11.941406 16 -12.0625 16.21875 -12.125 C 16.445312 -12.1875 16.675781 -12.316406 16.90625 -12.515625 L 17.0625 -12.390625 C 17.0625 -12.472656 17.082031 -12.539062 17.125 -12.59375 C 17.164062 -12.65625 17.179688 -12.742188 17.171875 -12.859375 L 26.359375 -19.578125 L 29.203125 -21.65625 C 28.203125 -22.382812 26.925781 -23.453125 25.375 -24.859375 C 24.925781 -25.359375 24.550781 -25.828125 24.25 -26.265625 C 23.957031 -26.710938 23.925781 -27.160156 24.15625 -27.609375 C 24.238281 -27.722656 24.410156 -27.867188 24.671875 -28.046875 C 24.929688 -28.222656 25.203125 -28.25 25.484375 -28.125 C 25.921875 -28.25 26.210938 -28.257812 26.359375 -28.15625 C 26.503906 -28.050781 26.578125 -28 26.578125 -28 C 26.628906 -27.957031 26.703125 -27.875 26.796875 -27.75 C 26.898438 -27.632812 27.003906 -27.585938 27.109375 -27.609375 C 27.492188 -27.515625 27.851562 -27.390625 28.1875 -27.234375 C 28.519531 -27.078125 28.789062 -26.832031 29 -26.5 L 30.53125 -25.125 C 30.96875 -24.875 31.347656 -24.628906 31.671875 -24.390625 C 32.003906 -24.160156 32.28125 -23.960938 32.5 -23.796875 C 33.144531 -24.066406 33.6875 -24.375 34.125 -24.71875 C 34.5625 -25.070312 35.046875 -25.363281 35.578125 -25.59375 C 36.035156 -25.988281 36.5 -26.320312 36.96875 -26.59375 C 37.4375 -26.875 37.910156 -27.160156 38.390625 -27.453125 C 38.847656 -27.816406 39.363281 -28.148438 39.9375 -28.453125 C 40.507812 -28.753906 41.050781 -29.128906 41.5625 -29.578125 C 42.125 -29.859375 42.660156 -30.191406 43.171875 -30.578125 C 43.679688 -30.972656 44.242188 -31.351562 44.859375 -31.71875 C 44.984375 -31.894531 45.144531 -31.992188 45.34375 -32.015625 C 45.550781 -32.046875 45.800781 -32.140625 46.09375 -32.296875 C 46.414062 -32.503906 46.800781 -32.753906 47.25 -33.046875 C 47.707031 -33.347656 48.066406 -33.628906 48.328125 -33.890625 C 48.847656 -34.222656 49.238281 -34.207031 49.5 -33.84375 C 49.507812 -33.726562 49.546875 -33.625 49.609375 -33.53125 C 49.679688 -33.445312 49.726562 -33.351562 49.75 -33.25 C 49.925781 -32.769531 50.117188 -32.335938 50.328125 -31.953125 C 50.546875 -31.566406 50.5625 -31.175781 50.375 -30.78125 C 50.332031 -30.625 50.34375 -30.4375 50.40625 -30.21875 C 50.46875 -30 50.488281 -29.804688 50.46875 -29.640625 C 50.65625 -29.148438 50.628906 -28.8125 50.390625 -28.625 C 50.160156 -28.4375 49.882812 -28.238281 49.5625 -28.03125 C 48.625 -27.46875 47.6875 -26.914062 46.75 -26.375 C 45.820312 -25.84375 44.847656 -25.367188 43.828125 -24.953125 C 43.328125 -24.515625 42.726562 -24.125 42.03125 -23.78125 C 41.34375 -23.4375 40.664062 -23.054688 40 -22.640625 C 39.0625 -21.984375 38.378906 -21.515625 37.953125 -21.234375 C 37.535156 -20.960938 37.097656 -20.640625 36.640625 -20.265625 C 37.242188 -19.722656 37.6875 -19.28125 37.96875 -18.9375 C 38.257812 -18.601562 38.515625 -18.40625 38.734375 -18.34375 C 40.085938 -17.257812 41.117188 -16.4375 41.828125 -15.875 C 42.546875 -15.3125 43.148438 -14.875 43.640625 -14.5625 C 44.128906 -14.25 44.703125 -13.9375 45.359375 -13.625 C 45.523438 -13.59375 45.738281 -13.570312 46 -13.5625 C 46.257812 -13.5625 46.40625 -13.453125 46.4375 -13.234375 C 46.257812 -12.753906 45.894531 -12.597656 45.34375 -12.765625 C 44.800781 -12.941406 44.335938 -12.945312 43.953125 -12.78125 L 43.703125 -12.8125 C 43.460938 -12.988281 43.128906 -13.210938 42.703125 -13.484375 C 42.273438 -13.753906 41.878906 -13.9375 41.515625 -14.03125 C 41.410156 -14.28125 41.128906 -14.546875 40.671875 -14.828125 C 40.210938 -15.117188 39.820312 -15.34375 39.5 -15.5 Z M 39.5 -15.5 "/></g></g></g><g fill="#ffffff" fill-opacity="1"><g transform="translate(341.427634, 137.290379)"><g/></g></g><g clip-path="url(#f7de6df157)"><path fill="#ffffff" d="M 111.566406 337.460938 L 111.613281 336.242188 C 111.648438 335.304688 114.976562 242.558594 111.15625 226.324219 C 109.78125 220.480469 106.484375 216.097656 101.351562 213.296875 C 94.039062 209.296875 83.613281 209.046875 73.464844 212.621094 C 72.34375 213.019531 71.320312 213.40625 70.445312 213.851562 C 71.488281 216.351562 72.195312 218.808594 71.269531 220.578125 C 70.226562 222.558594 68.648438 222.9375 67.503906 222.664062 C 65.902344 222.25 64.859375 220.539062 64.902344 218.398438 C 64.957031 215.863281 66.066406 214.171875 67.535156 212.984375 L 67.40625 212.695312 C 65.816406 209.082031 63.492188 205.511719 61.246094 202.0625 C 59.890625 199.980469 58.492188 197.832031 57.273438 195.703125 C 56.351562 194.089844 55.265625 192.328125 54.121094 190.46875 C 49.414062 182.832031 43.558594 173.332031 43.558594 165.019531 C 43.558594 155.414062 111.523438 119.714844 165.945312 116.769531 C 195.617188 115.164062 216.035156 119.050781 224.917969 128 C 228.578125 131.695312 230.269531 136.167969 229.953125 141.304688 C 229.117188 154.585938 213.089844 160.363281 180.96875 158.964844 C 159.273438 158.019531 146.714844 154.332031 146.714844 138.304688 C 146.714844 137.667969 147.234375 137.148438 147.871094 137.148438 C 148.507812 137.148438 149.027344 137.667969 149.027344 138.304688 C 149.027344 150.976562 157.117188 155.605469 181.066406 156.648438 C 211.667969 158.007812 226.90625 152.917969 227.644531 141.160156 C 227.917969 136.710938 226.449219 132.835938 223.269531 129.632812 C 217.414062 123.726562 202.734375 117.054688 166.070312 119.085938 C 111.539062 122.035156 45.875 157.316406 45.875 165.019531 C 45.875 172.675781 51.535156 181.867188 56.085938 189.253906 C 57.25 191.132812 58.347656 192.914062 59.28125 194.550781 C 60.464844 196.625 61.847656 198.746094 63.183594 200.792969 C 65.476562 204.3125 67.84375 207.949219 69.511719 211.730469 C 70.597656 211.179688 71.726562 210.78125 72.695312 210.441406 C 83.449219 206.648438 94.585938 206.953125 102.464844 211.257812 C 108.117188 214.347656 111.898438 219.375 113.410156 225.792969 C 117.109375 241.492188 114.375 323.558594 113.96875 335.101562 L 264.160156 332.222656 C 263.890625 324.355469 262.285156 279.011719 260.523438 253.441406 C 260.242188 249.386719 259.945312 245.621094 259.664062 242.121094 C 257.976562 220.84375 257.046875 209.121094 266.632812 205.476562 C 282.265625 199.503906 295.097656 207.820312 298.109375 210.039062 C 299.648438 208.972656 304.730469 204.753906 314.617188 190.300781 C 325.570312 174.292969 328.429688 162.660156 328.957031 160.101562 C 326.886719 157.886719 315.832031 146.847656 292.710938 137.425781 C 275.402344 130.375 256.097656 124.863281 238.359375 121.894531 C 237.726562 121.792969 237.300781 121.191406 237.410156 120.5625 C 237.511719 119.933594 238.125 119.488281 238.742188 119.613281 C 256.644531 122.605469 276.121094 128.167969 293.589844 135.28125 C 319.875 145.992188 330.640625 158.480469 331.082031 159.007812 L 331.425781 159.414062 L 331.34375 159.933594 C 331.261719 160.460938 329.210938 173.085938 316.527344 191.613281 C 304.019531 209.898438 298.988281 212.296875 298.453125 212.511719 L 297.820312 212.761719 L 297.292969 212.328125 C 297.15625 212.214844 283.71875 201.449219 267.453125 207.640625 C 259.496094 210.671875 260.375 221.777344 261.976562 241.941406 C 262.253906 245.445312 262.554688 249.222656 262.832031 253.277344 C 264.761719 281.246094 266.5 332.800781 266.519531 333.316406 L 266.558594 334.492188 Z M 68.492188 215.207031 C 67.710938 216.019531 67.25 217.039062 67.21875 218.445312 C 67.195312 219.578125 67.644531 220.308594 68.078125 220.417969 C 68.460938 220.484375 68.871094 220.164062 69.21875 219.5 C 69.675781 218.628906 69.113281 216.769531 68.492188 215.207031 Z M 68.492188 215.207031 " fill-opacity="1" fill-rule="nonzero"/></g></svg>